{
  "source": "C:\\Users\\Peter\\Desktop\\stuff\\MIUN\\quantitative_research\\video_compression\\videos\\UVG\\Bosphorus_1920x1080_120fps_420_8bit_YUV.y4m",
  "output": "C:\\Users\\Peter\\Desktop\\stuff\\MIUN\\quantitative_research\\video_compression\\compressed_videos\\UVG\\hevc\\4\\Bosphorus_1920x1080_120fps_420_8bit_YUV_hevc.mp4",
  "codec": "hevc",
  "ok": "[yuv4mpegpipe @ 0000029cecbf6740] Stream #0: not enough frames to estimate rate; consider increasing probesize\nInput #0, yuv4mpegpipe, from 'C:\\Users\\Peter\\Desktop\\stuff\\MIUN\\quantitative_research\\video_compression\\videos\\UVG\\Bosphorus_1920x1080_120fps_420_8bit_YUV.y4m':\n  Duration: 00:00:05.00, start: 0.000000, bitrate: 2985989 kb/s\n  Stream #0:0: Video: rawvideo (I420 / 0x30323449), yuv420p(progressive), 1920x1080, 120 fps, 120 tbr, 120 tbn\n[out#0/mp4 @ 0000029cecbf9a80] Codec AVOption b:a (set bitrate (in bits/s)) has not been used for any stream. The most likely reason is either wrong type (e.g. a video option with no video streams) or that it is a private option of some decoder which was not actually used for any stream.\nStream mapping:\n  Stream #0:0 -> #0:0 (rawvideo (native) -> hevc (libx265))\nPress [q] to stop, [?] for help\n[libx265 @ 0000029cecbfcac0] Unknown option: \"aq-mode.\nx265 [info]: HEVC encoder version 4.1+190-8f11c33ac\nx265 [info]: build info [Windows][GCC 15.1.0][64 bit] 10bit\nx265 [info]: using cpu capabilities: MMX2 SSE2Fast LZCNT SSSE3 SSE4.2 AVX FMA3 BMI2 AVX2\nx265 [info]: Main 10 profile, Level-5 (Main tier)\nx265 [info]: Thread pool created using 12 threads\nx265 [info]: Slices                              : 1\nx265 [info]: frame threads / pool features       : 3 / wpp(17 rows)\nx265 [info]: Coding QT: max CU size, min CU size : 64 / 8\nx265 [info]: Residual QT: max TU size, max depth : 32 / 1 inter / 1 intra\nx265 [info]: ME / range / subpel / merge         : star / 57 / 3 / 3\nx265 [info]: Keyframe min / max / scenecut / bias  : 25 / 250 / 40 / 5.00 \nx265 [info]: Lookahead / bframes / badapt        : 25 / 4 / 2\nx265 [info]: b-pyramid / weightp / weightb       : 1 / 1 / 0\nx265 [info]: References / ref-limit  cu / depth  : 4 / on / on\nx265 [info]: AQ: mode / str / qg-size / cu-tree  : 2 / 1.0 / 32 / 1\nx265 [info]: Rate Control / qCompress            : ABR-4000 kbps / 0.60\nx265 [info]: VBV/HRD buffer / max-rate / init    : 4000 / 4000 / 0.750\nx265 [info]: tools: rect limit-modes rd=4 psy-rd=2.00 rdoq=2 psy-rdoq=1.00\nx265 [info]: tools: rskip mode=1 signhide tmvp strong-intra-smoothing lslices=4\nx265 [info]: tools: deblock sao dhdr10-info\nOutput #0, mp4, to 'C:\\Users\\Peter\\Desktop\\stuff\\MIUN\\quantitative_research\\video_compression\\compressed_videos\\UVG\\hevc\\4\\Bosphorus_1920x1080_120fps_420_8bit_YUV_hevc.mp4':\n  Metadata:\n    encoder         : Lavf62.3.100\n  Stream #0:0: Video: hevc (hev1 / 0x31766568), yuv420p10le(tv, progressive), 1920x1080, q=2-31, 4000 kb/s, 120 fps, 15360 tbn\n    Metadata:\n      encoder         : Lavc62.11.100 libx265\n    Side data:\n      cpb: bitrate max/min/avg: 4000000/0/4000000 buffer size: 4000000 vbv_delay: N/A\nframe=    0 fps=0.0 q=0.0 size=       0KiB time=N/A bitrate=N/A speed=N/A elapsed=0:00:01.73    \nframe=    0 fps=0.0 q=0.0 size=       0KiB time=N/A bitrate=N/A speed=N/A elapsed=0:00:02.27    \nframe=    0 fps=0.0 q=0.0 size=       0KiB time=N/A bitrate=N/A speed=N/A elapsed=0:00:02.79    \nframe=    0 fps=0.0 q=0.0 size=       0KiB time=N/A bitrate=N/A speed=N/A elapsed=0:00:03.33    \nframe=    0 fps=0.0 q=0.0 size=       0KiB time=N/A bitrate=N/A speed=N/A elapsed=0:00:03.85    \nframe=    0 fps=0.0 q=0.0 size=       0KiB time=N/A bitrate=N/A speed=N/A elapsed=0:00:04.36    \nframe=    0 fps=0.0 q=0.0 size=       0KiB time=N/A bitrate=N/A speed=N/A elapsed=0:00:04.94    \nframe=    0 fps=0.0 q=0.0 size=       0KiB time=N/A bitrate=N/A speed=N/A elapsed=0:00:05.48    \nframe=    0 fps=0.0 q=0.0 size=       0KiB time=N/A bitrate=N/A speed=N/A elapsed=0:00:06.05    \nframe=    0 fps=0.0 q=0.0 size=       0KiB time=N/A bitrate=N/A speed=N/A elapsed=0:00:06.58    \nframe=    0 fps=0.0 q=0.0 size=       0KiB time=N/A bitrate=N/A speed=N/A elapsed=0:00:07.13    \nframe=    0 fps=0.0 q=0.0 size=       0KiB time=N/A bitrate=N/A speed=N/A elapsed=0:00:07.69    \nframe=    0 fps=0.0 q=0.0 size=       0KiB time=N/A bitrate=N/A speed=N/A elapsed=0:00:08.26    \nframe=    0 fps=0.0 q=0.0 size=       0KiB time=N/A bitrate=N/A speed=N/A elapsed=0:00:08.81    \nframe=    0 fps=0.0 q=0.0 size=       0KiB time=N/A bitrate=N/A speed=N/A elapsed=0:00:09.37    \nframe=    0 fps=0.0 q=0.0 size=       0KiB time=N/A bitrate=N/A speed=N/A elapsed=0:00:09.88    \nframe=    0 fps=0.0 q=0.0 size=       0KiB time=N/A bitrate=N/A speed=N/A elapsed=0:00:10.41    \nframe=    1 fps=0.1 q=40.1 size=       0KiB time=-00:00:00.00 bitrate=N/A speed=N/A elapsed=0:00:10.94    \nframe=    2 fps=0.2 q=48.3 size=       0KiB time=00:00:00.00 bitrate=N/A speed=   0x elapsed=0:00:11.46    \nframe=    3 fps=0.3 q=50.0 size=       0KiB time=00:00:00.00 bitrate=  42.2kbits/s speed=0.000696x elapsed=0:00:11.97    \nframe=    3 fps=0.2 q=50.0 size=       0KiB time=00:00:00.00 bitrate=  42.2kbits/s speed=0.000666x elapsed=0:00:12.50    \nframe=    4 fps=0.3 q=50.0 size=       0KiB time=00:00:00.01 bitrate=  21.1kbits/s speed=0.00128x elapsed=0:00:13.04    \nframe=    4 fps=0.3 q=50.0 size=       0KiB time=00:00:00.01 bitrate=  21.1kbits/s speed=0.00123x elapsed=0:00:13.57    \nframe=    6 fps=0.4 q=38.3 size=       0KiB time=00:00:00.03 bitrate=  10.6kbits/s speed=0.00236x elapsed=0:00:14.15    \nframe=    7 fps=0.5 q=41.2 size=       0KiB time=00:00:00.04 bitrate=   8.4kbits/s speed=0.00283x elapsed=0:00:14.71    \nframe=    7 fps=0.5 q=41.2 size=       0KiB time=00:00:00.04 bitrate=   8.4kbits/s speed=0.00272x elapsed=0:00:15.30    \nframe=    7 fps=0.4 q=41.2 size=       0KiB time=00:00:00.04 bitrate=   8.4kbits/s speed=0.00263x elapsed=0:00:15.85    \nframe=    8 fps=0.5 q=41.7 size=       0KiB time=00:00:00.05 bitrate=   7.0kbits/s speed=0.00304x elapsed=0:00:16.42    \nframe=    8 fps=0.5 q=41.7 size=       0KiB time=00:00:00.05 bitrate=   7.0kbits/s speed=0.00294x elapsed=0:00:16.99    \nframe=    9 fps=0.5 q=41.9 size=       0KiB time=00:00:00.05 bitrate=   6.0kbits/s speed=0.00333x elapsed=0:00:17.53    \nframe=   10 fps=0.6 q=34.9 size=       0KiB time=00:00:00.06 bitrate=   5.3kbits/s speed=0.00369x elapsed=0:00:18.09    \nframe=   12 fps=0.6 q=41.9 size=       0KiB time=00:00:00.08 bitrate=   4.2kbits/s speed=0.00446x elapsed=0:00:18.67    \nframe=   12 fps=0.6 q=41.9 size=       0KiB time=00:00:00.08 bitrate=   4.2kbits/s speed=0.00434x elapsed=0:00:19.20    \nframe=   12 fps=0.6 q=41.9 size=       0KiB time=00:00:00.08 bitrate=   4.2kbits/s speed=0.00422x elapsed=0:00:19.73    \nframe=   12 fps=0.6 q=41.9 size=       0KiB time=00:00:00.08 bitrate=   4.2kbits/s speed=0.00411x elapsed=0:00:20.25    \nframe=   12 fps=0.6 q=41.9 size=       0KiB time=00:00:00.08 bitrate=   4.2kbits/s speed=0.00401x elapsed=0:00:20.78    \nframe=   14 fps=0.7 q=35.7 size=       0KiB time=00:00:00.09 bitrate=   3.8kbits/s speed=0.00429x elapsed=0:00:21.35    \nframe=   15 fps=0.7 q=41.5 size=       0KiB time=00:00:00.10 bitrate=   3.2kbits/s speed=0.00494x elapsed=0:00:21.92    \nframe=   15 fps=0.7 q=41.5 size=       0KiB time=00:00:00.10 bitrate=   3.2kbits/s speed=0.00482x elapsed=0:00:22.45    \nframe=   15 fps=0.7 q=41.5 size=       0KiB time=00:00:00.10 bitrate=   3.2kbits/s speed=0.00471x elapsed=0:00:22.97    \nframe=   16 fps=0.7 q=43.0 size=       0KiB time=00:00:00.11 bitrate=   3.0kbits/s speed=0.00497x elapsed=0:00:23.48    \nframe=   16 fps=0.7 q=43.0 size=       0KiB time=00:00:00.11 bitrate=   3.0kbits/s speed=0.00485x elapsed=0:00:24.03    \nframe=   17 fps=0.7 q=40.9 size=       0KiB time=00:00:00.12 bitrate=   2.8kbits/s speed=0.00508x elapsed=0:00:24.60    \nframe=   18 fps=0.7 q=34.2 size=       0KiB time=00:00:00.13 bitrate=   2.6kbits/s speed=0.00531x elapsed=0:00:25.12    \nframe=   19 fps=0.7 q=40.8 size=       0KiB time=00:00:00.14 bitrate=   2.5kbits/s speed=0.00552x elapsed=0:00:25.67    \nframe=   20 fps=0.8 q=40.9 size=       0KiB time=00:00:00.15 bitrate=   2.3kbits/s speed=0.00573x elapsed=0:00:26.20    \nframe=   20 fps=0.7 q=40.9 size=       0KiB time=00:00:00.15 bitrate=   2.3kbits/s speed=0.0056x elapsed=0:00:26.76    \nframe=   21 fps=0.8 q=39.9 size=       0KiB time=00:00:00.15 bitrate=   2.2kbits/s speed=0.0058x elapsed=0:00:27.27    \nframe=   22 fps=0.8 q=33.2 size=       0KiB time=00:00:00.16 bitrate=   2.1kbits/s speed=0.00599x elapsed=0:00:27.81    \nframe=   23 fps=0.8 q=39.5 size=       0KiB time=00:00:00.17 bitrate=   2.0kbits/s speed=0.00617x elapsed=0:00:28.37    \nframe=   24 fps=0.8 q=39.9 size=       0KiB time=00:00:00.18 bitrate=   1.9kbits/s speed=0.00634x elapsed=0:00:28.92    \nframe=   24 fps=0.8 q=39.9 size=       0KiB time=00:00:00.18 bitrate=   1.9kbits/s speed=0.00622x elapsed=0:00:29.45    \nframe=   24 fps=0.8 q=39.9 size=       0KiB time=00:00:00.18 bitrate=   1.9kbits/s speed=0.00611x elapsed=0:00:30.00    \nframe=   24 fps=0.8 q=39.9 size=       0KiB time=00:00:00.18 bitrate=   1.9kbits/s speed=0.006x elapsed=0:00:30.53    \nframe=   25 fps=0.8 q=39.9 size=       0KiB time=00:00:00.19 bitrate=   1.8kbits/s speed=0.00616x elapsed=0:00:31.10    \nframe=   26 fps=0.8 q=32.9 size=       0KiB time=00:00:00.20 bitrate=   1.8kbits/s speed=0.00631x elapsed=0:00:31.67    \nframe=   27 fps=0.8 q=39.6 size=       0KiB time=00:00:00.20 bitrate=   1.7kbits/s speed=0.00646x elapsed=0:00:32.22    \nframe=   28 fps=0.9 q=39.8 size=       0KiB time=00:00:00.21 bitrate=   1.6kbits/s speed=0.0066x elapsed=0:00:32.81    \nframe=   28 fps=0.8 q=39.8 size=       0KiB time=00:00:00.21 bitrate=   1.6kbits/s speed=0.0065x elapsed=0:00:33.35    \nframe=   28 fps=0.8 q=39.8 size=       0KiB time=00:00:00.21 bitrate=   1.6kbits/s speed=0.0064x elapsed=0:00:33.86    \nframe=   29 fps=0.8 q=40.0 size=       0KiB time=00:00:00.22 bitrate=   1.6kbits/s speed=0.00654x elapsed=0:00:34.40    \nframe=   30 fps=0.9 q=32.4 size=       0KiB time=00:00:00.23 bitrate=   1.5kbits/s speed=0.00668x elapsed=0:00:34.94    \nframe=   31 fps=0.9 q=38.2 size=       0KiB time=00:00:00.24 bitrate=   1.5kbits/s speed=0.00681x elapsed=0:00:35.48    \nframe=   32 fps=0.9 q=39.9 size=       0KiB time=00:00:00.25 bitrate=   1.4kbits/s speed=0.00693x elapsed=0:00:36.07    \nframe=   32 fps=0.9 q=39.9 size=       0KiB time=00:00:00.25 bitrate=   1.4kbits/s speed=0.00683x elapsed=0:00:36.59    \nframe=   32 fps=0.9 q=39.9 size=       0KiB time=00:00:00.25 bitrate=   1.4kbits/s speed=0.00673x elapsed=0:00:37.12    \nframe=   32 fps=0.8 q=39.9 size=       0KiB time=00:00:00.25 bitrate=   1.4kbits/s speed=0.00663x elapsed=0:00:37.68    \nframe=   32 fps=0.8 q=39.9 size=       0KiB time=00:00:00.25 bitrate=   1.4kbits/s speed=0.00654x elapsed=0:00:38.24    \nframe=   34 fps=0.9 q=32.1 size=       0KiB time=00:00:00.26 bitrate=   1.3kbits/s speed=0.00687x elapsed=0:00:38.82    \nframe=   34 fps=0.9 q=32.1 size=       0KiB time=00:00:00.26 bitrate=   1.3kbits/s speed=0.00678x elapsed=0:00:39.34    \nframe=   35 fps=0.9 q=38.5 size=       0KiB time=00:00:00.27 bitrate=   1.3kbits/s speed=0.00689x elapsed=0:00:39.89    \nframe=   36 fps=0.9 q=39.0 size=       0KiB time=00:00:00.28 bitrate=   1.2kbits/s speed=0.00701x elapsed=0:00:40.43    \nframe=   36 fps=0.9 q=39.0 size=       0KiB time=00:00:00.28 bitrate=   1.2kbits/s speed=0.00691x elapsed=0:00:40.98    \nframe=   37 fps=0.9 q=38.9 size=       0KiB time=00:00:00.29 bitrate=   1.2kbits/s speed=0.00702x elapsed=0:00:41.52    \nframe=   38 fps=0.9 q=31.8 size=       0KiB time=00:00:00.30 bitrate=   1.2kbits/s speed=0.00713x elapsed=0:00:42.06    \nframe=   39 fps=0.9 q=38.5 size=       0KiB time=00:00:00.30 bitrate=   1.1kbits/s speed=0.00724x elapsed=0:00:42.60    \nframe=   39 fps=0.9 q=38.5 size=       0KiB time=00:00:00.30 bitrate=   1.1kbits/s speed=0.00714x elapsed=0:00:43.17    \nframe=   40 fps=0.9 q=38.9 size=       0KiB time=00:00:00.31 bitrate=   1.1kbits/s speed=0.00725x elapsed=0:00:43.69    \nframe=   41 fps=0.9 q=38.9 size=       0KiB time=00:00:00.32 bitrate=   1.1kbits/s speed=0.00735x elapsed=0:00:44.24    \nframe=   42 fps=0.9 q=31.6 size=       0KiB time=00:00:00.33 bitrate=   1.1kbits/s speed=0.00744x elapsed=0:00:44.77    \nframe=   43 fps=0.9 q=37.4 size=       0KiB time=00:00:00.34 bitrate=   1.0kbits/s speed=0.00754x elapsed=0:00:45.31    \nframe=   43 fps=0.9 q=37.4 size=       0KiB time=00:00:00.34 bitrate=   1.0kbits/s speed=0.00745x elapsed=0:00:45.87    \nframe=   43 fps=0.9 q=37.4 size=       0KiB time=00:00:00.34 bitrate=   1.0kbits/s speed=0.00736x elapsed=0:00:46.41    \nframe=   43 fps=0.9 q=37.4 size=       0KiB time=00:00:00.34 bitrate=   1.0kbits/s speed=0.00728x elapsed=0:00:46.94    \nframe=   44 fps=0.9 q=38.9 size=       0KiB time=00:00:00.35 bitrate=   1.0kbits/s speed=0.00737x elapsed=0:00:47.47    \nframe=   44 fps=0.9 q=38.9 size=       0KiB time=00:00:00.35 bitrate=   1.0kbits/s speed=0.00729x elapsed=0:00:48.03    \nframe=   45 fps=0.9 q=38.0 size=       0KiB time=00:00:00.35 bitrate=   1.0kbits/s speed=0.00737x elapsed=0:00:48.63    \nframe=   45 fps=0.9 q=38.0 size=       0KiB time=00:00:00.35 bitrate=   1.0kbits/s speed=0.00729x elapsed=0:00:49.16    \nframe=   45 fps=0.9 q=38.0 size=       0KiB time=00:00:00.35 bitrate=   1.0kbits/s speed=0.00721x elapsed=0:00:49.67    \nframe=   45 fps=0.9 q=38.0 size=       0KiB time=00:00:00.35 bitrate=   1.0kbits/s speed=0.00714x elapsed=0:00:50.19    \nframe=   47 fps=0.9 q=37.3 size=       0KiB time=00:00:00.37 bitrate=   0.9kbits/s speed=0.00739x elapsed=0:00:50.74    \nframe=   47 fps=0.9 q=37.3 size=       0KiB time=00:00:00.37 bitrate=   0.9kbits/s speed=0.00731x elapsed=0:00:51.32    \nframe=   48 fps=0.9 q=38.9 size=       0KiB time=00:00:00.38 bitrate=   0.9kbits/s speed=0.00739x elapsed=0:00:51.85    \nframe=   48 fps=0.9 q=38.9 size=       0KiB time=00:00:00.38 bitrate=   0.9kbits/s speed=0.00731x elapsed=0:00:52.40    \nframe=   49 fps=0.9 q=38.0 size=       0KiB time=00:00:00.39 bitrate=   0.9kbits/s speed=0.00739x elapsed=0:00:52.98    \nframe=   51 fps=1.0 q=37.2 size=       0KiB time=00:00:00.40 bitrate=   0.9kbits/s speed=0.00763x elapsed=0:00:53.51    \nframe=   51 fps=0.9 q=37.2 size=       0KiB time=00:00:00.40 bitrate=   0.9kbits/s speed=0.00756x elapsed=0:00:54.04    \nframe=   51 fps=0.9 q=37.2 size=       0KiB time=00:00:00.40 bitrate=   0.9kbits/s speed=0.00748x elapsed=0:00:54.60    \nframe=   52 fps=0.9 q=37.9 size=       0KiB time=00:00:00.41 bitrate=   0.8kbits/s speed=0.00756x elapsed=0:00:55.13    \nframe=   53 fps=1.0 q=37.9 size=       0KiB time=00:00:00.41 bitrate=   0.8kbits/s speed=0.00748x elapsed=0:00:55.71    \nframe=   53 fps=0.9 q=37.9 size=       0KiB time=00:00:00.42 bitrate=   0.8kbits/s speed=0.00755x elapsed=0:00:56.32    \nframe=   54 fps=0.9 q=31.4 size=       0KiB time=00:00:00.43 bitrate=   0.8kbits/s speed=0.00762x elapsed=0:00:56.87    \nframe=   54 fps=0.9 q=31.4 size=       0KiB time=00:00:00.43 bitrate=   0.8kbits/s speed=0.00754x elapsed=0:00:57.43    \nframe=   55 fps=0.9 q=37.2 size=       0KiB time=00:00:00.44 bitrate=   0.8kbits/s speed=0.00762x elapsed=0:00:57.97    \nframe=   56 fps=1.0 q=38.0 size=       0KiB time=00:00:00.45 bitrate=   0.8kbits/s speed=0.00769x elapsed=0:00:58.51    \nframe=   56 fps=0.9 q=38.0 size=       0KiB time=00:00:00.45 bitrate=   0.8kbits/s speed=0.00762x elapsed=0:00:59.03    \nframe=   57 fps=1.0 q=37.9 size=       0KiB time=00:00:00.45 bitrate=   0.8kbits/s speed=0.00769x elapsed=0:00:59.59    \nframe=   57 fps=0.9 q=37.9 size=       0KiB time=00:00:00.45 bitrate=   0.8kbits/s speed=0.00762x elapsed=0:01:00.15    \nframe=   59 fps=1.0 q=37.1 size=       0KiB time=00:00:00.47 bitrate=   0.7kbits/s speed=0.00783x elapsed=0:01:00.67    \nframe=   59 fps=1.0 q=37.1 size=       0KiB time=00:00:00.47 bitrate=   0.7kbits/s speed=0.00776x elapsed=0:01:01.23    \nframe=   60 fps=1.0 q=38.0 size=       0KiB time=00:00:00.48 bitrate=   0.7kbits/s speed=0.00782x elapsed=0:01:01.79    \nframe=   61 fps=1.0 q=37.9 size=       0KiB time=00:00:00.49 bitrate=   0.7kbits/s speed=0.00789x elapsed=0:01:02.31    \nframe=   62 fps=1.0 q=31.0 size=       0KiB time=00:00:00.50 bitrate=   0.7kbits/s speed=0.00796x elapsed=0:01:02.83    \nframe=   62 fps=1.0 q=31.0 size=       0KiB time=00:00:00.50 bitrate=   0.7kbits/s speed=0.00789x elapsed=0:01:03.39    \nframe=   63 fps=1.0 q=37.2 size=       0KiB time=00:00:00.50 bitrate=   0.7kbits/s speed=0.00795x elapsed=0:01:03.97    \nframe=   64 fps=1.0 q=38.0 size=       0KiB time=00:00:00.51 bitrate=   0.7kbits/s speed=0.00801x elapsed=0:01:04.52    \nframe=   64 fps=1.0 q=38.0 size=       0KiB time=00:00:00.51 bitrate=   0.7kbits/s speed=0.00794x elapsed=0:01:05.05    \nframe=   65 fps=1.0 q=38.0 size=       0KiB time=00:00:00.52 bitrate=   0.7kbits/s speed=0.008x elapsed=0:01:05.61    \nframe=   67 fps=1.0 q=36.8 size=       0KiB time=00:00:00.53 bitrate=   0.7kbits/s speed=0.00806x elapsed=0:01:06.15    \nframe=   67 fps=1.0 q=36.8 size=       0KiB time=00:00:00.54 bitrate=   0.6kbits/s speed=0.00812x elapsed=0:01:06.72    \nframe=   68 fps=1.0 q=37.9 size=       0KiB time=00:00:00.55 bitrate=   0.6kbits/s speed=0.00818x elapsed=0:01:07.26    \nframe=   69 fps=1.0 q=37.9 size=       0KiB time=00:00:00.55 bitrate=   0.6kbits/s speed=0.00823x elapsed=0:01:07.81    \nframe=   70 fps=1.0 q=31.5 size=       0KiB time=00:00:00.56 bitrate=   0.6kbits/s speed=0.00829x elapsed=0:01:08.37    \nframe=   70 fps=1.0 q=31.5 size=       0KiB time=00:00:00.56 bitrate=   0.6kbits/s speed=0.00822x elapsed=0:01:08.94    \nframe=   71 fps=1.0 q=35.8 size=       0KiB time=00:00:00.57 bitrate=   0.6kbits/s speed=0.00827x elapsed=0:01:09.49    \nframe=   71 fps=1.0 q=35.8 size=       0KiB time=00:00:00.57 bitrate=   0.6kbits/s speed=0.00821x elapsed=0:01:10.04    \nframe=   71 fps=1.0 q=35.8 size=       0KiB time=00:00:00.57 bitrate=   0.6kbits/s speed=0.00815x elapsed=0:01:10.59    \nframe=   71 fps=1.0 q=35.8 size=       0KiB time=00:00:00.57 bitrate=   0.6kbits/s speed=0.00808x elapsed=0:01:11.12    \nframe=   71 fps=1.0 q=35.8 size=       0KiB time=00:00:00.57 bitrate=   0.6kbits/s speed=0.00803x elapsed=0:01:11.64    \nframe=   72 fps=1.0 q=37.9 size=       0KiB time=00:00:00.58 bitrate=   0.6kbits/s speed=0.00807x elapsed=0:01:12.24    \nframe=   72 fps=1.0 q=37.9 size=       0KiB time=00:00:00.58 bitrate=   0.6kbits/s speed=0.00801x elapsed=0:01:12.79    \nframe=   72 fps=1.0 q=37.9 size=       0KiB time=00:00:00.58 bitrate=   0.6kbits/s speed=0.00795x elapsed=0:01:13.36    \nframe=   73 fps=1.0 q=37.9 size=       0KiB time=00:00:00.59 bitrate=   0.6kbits/s speed=0.00801x elapsed=0:01:13.90    \nframe=   73 fps=1.0 q=37.9 size=       0KiB time=00:00:00.59 bitrate=   0.6kbits/s speed=0.00795x elapsed=0:01:14.42    \nframe=   73 fps=1.0 q=37.9 size=       0KiB time=00:00:00.59 bitrate=   0.6kbits/s speed=0.00789x elapsed=0:01:14.98    \nframe=   74 fps=1.0 q=30.8 size=       0KiB time=00:00:00.60 bitrate=   0.6kbits/s speed=0.00794x elapsed=0:01:15.55    \nframe=   74 fps=1.0 q=30.8 size=       0KiB time=00:00:00.60 bitrate=   0.6kbits/s speed=0.00789x elapsed=0:01:16.07    \nframe=   75 fps=1.0 q=36.1 size=     256KiB time=00:00:00.60 bitrate=3448.0kbits/s speed=0.00794x elapsed=0:01:16.62    \nframe=   75 fps=1.0 q=36.1 size=     256KiB time=00:00:00.60 bitrate=3448.0kbits/s speed=0.00788x elapsed=0:01:17.17    \nframe=   75 fps=1.0 q=36.1 size=     256KiB time=00:00:00.60 bitrate=3448.0kbits/s speed=0.00782x elapsed=0:01:17.79    \nframe=   75 fps=1.0 q=36.1 size=     256KiB time=00:00:00.60 bitrate=3448.0kbits/s speed=0.00776x elapsed=0:01:18.35    \nframe=   75 fps=1.0 q=36.1 size=     256KiB time=00:00:00.60 bitrate=3448.0kbits/s speed=0.00771x elapsed=0:01:18.91    \nframe=   75 fps=0.9 q=36.1 size=     256KiB time=00:00:00.60 bitrate=3448.0kbits/s speed=0.00766x elapsed=0:01:19.46    \nframe=   76 fps=0.9 q=38.0 size=     256KiB time=00:00:00.61 bitrate=3401.4kbits/s speed=0.0077x elapsed=0:01:20.04    \nframe=   76 fps=0.9 q=38.0 size=     256KiB time=00:00:00.61 bitrate=3401.4kbits/s speed=0.00765x elapsed=0:01:20.56    \nframe=   76 fps=0.9 q=38.0 size=     256KiB time=00:00:00.61 bitrate=3401.4kbits/s speed=0.0076x elapsed=0:01:21.10    \nframe=   77 fps=0.9 q=38.0 size=     256KiB time=00:00:00.62 bitrate=3356.0kbits/s speed=0.00765x elapsed=0:01:21.66    \nframe=   77 fps=0.9 q=38.0 size=     256KiB time=00:00:00.62 bitrate=3356.0kbits/s speed=0.0076x elapsed=0:01:22.20    \nframe=   77 fps=0.9 q=38.0 size=     256KiB time=00:00:00.62 bitrate=3356.0kbits/s speed=0.00755x elapsed=0:01:22.73    \nframe=   79 fps=0.9 q=35.8 size=     256KiB time=00:00:00.64 bitrate=3268.8kbits/s speed=0.00771x elapsed=0:01:23.24    \nframe=   79 fps=0.9 q=35.8 size=     256KiB time=00:00:00.64 bitrate=3268.8kbits/s speed=0.00766x elapsed=0:01:23.78    \nframe=   80 fps=0.9 q=37.9 size=     256KiB time=00:00:00.65 bitrate=3226.9kbits/s speed=0.00771x elapsed=0:01:24.30    \nframe=   80 fps=0.9 q=37.9 size=     256KiB time=00:00:00.65 bitrate=3226.9kbits/s speed=0.00766x elapsed=0:01:24.84    \nframe=   80 fps=0.9 q=37.9 size=     256KiB time=00:00:00.65 bitrate=3226.9kbits/s speed=0.00761x elapsed=0:01:25.38    \nframe=   80 fps=0.9 q=37.9 size=     256KiB time=00:00:00.65 bitrate=3226.9kbits/s speed=0.00757x elapsed=0:01:25.89    \nframe=   81 fps=0.9 q=37.9 size=     256KiB time=00:00:00.65 bitrate=3186.1kbits/s speed=0.00762x elapsed=0:01:26.41    \nframe=   83 fps=1.0 q=35.8 size=     256KiB time=00:00:00.67 bitrate=3107.4kbits/s speed=0.00776x elapsed=0:01:26.93    \nframe=   83 fps=0.9 q=35.8 size=     256KiB time=00:00:00.67 bitrate=3107.4kbits/s speed=0.00772x elapsed=0:01:27.46    \nframe=   85 fps=1.0 q=38.0 size=     256KiB time=00:00:00.69 bitrate=3032.5kbits/s speed=0.00786x elapsed=0:01:27.99    \nframe=   85 fps=1.0 q=38.0 size=     256KiB time=00:00:00.69 bitrate=3032.5kbits/s speed=0.00781x elapsed=0:01:28.53    \nframe=   87 fps=1.0 q=36.0 size=     256KiB time=00:00:00.70 bitrate=2961.2kbits/s speed=0.00795x elapsed=0:01:29.06    \nframe=   89 fps=1.0 q=37.8 size=     256KiB time=00:00:00.72 bitrate=2893.1kbits/s speed=0.00809x elapsed=0:01:29.58    \nframe=   89 fps=1.0 q=37.8 size=     256KiB time=00:00:00.72 bitrate=2893.1kbits/s speed=0.00805x elapsed=0:01:30.10    \nframe=   90 fps=1.0 q=30.4 size=     256KiB time=00:00:00.73 bitrate=2860.2kbits/s speed=0.00809x elapsed=0:01:30.64    \nframe=   92 fps=1.0 q=37.8 size=     256KiB time=00:00:00.75 bitrate=2796.7kbits/s speed=0.00823x elapsed=0:01:31.17    \nframe=   92 fps=1.0 q=37.8 size=     256KiB time=00:00:00.75 bitrate=2796.7kbits/s speed=0.00818x elapsed=0:01:31.68    \nframe=   93 fps=1.0 q=37.8 size=     256KiB time=00:00:00.75 bitrate=2765.9kbits/s speed=0.00822x elapsed=0:01:32.20    \nframe=   94 fps=1.0 q=38.0 size=     256KiB time=00:00:00.76 bitrate=2735.9kbits/s speed=0.00827x elapsed=0:01:32.71    \nframe=   95 fps=1.0 q=31.3 size=     256KiB time=00:00:00.77 bitrate=2706.5kbits/s speed=0.00831x elapsed=0:01:33.22    \nframe=   97 fps=1.0 q=37.8 size=     256KiB time=00:00:00.79 bitrate=2649.5kbits/s speed=0.00844x elapsed=0:01:33.77    \nframe=   97 fps=1.0 q=37.8 size=     256KiB time=00:00:00.79 bitrate=2649.5kbits/s speed=0.0084x elapsed=0:01:34.29    \nframe=   98 fps=1.0 q=38.0 size=     256KiB time=00:00:00.80 bitrate=2621.9kbits/s speed=0.00844x elapsed=0:01:34.80    \nframe=   98 fps=1.0 q=38.0 size=     256KiB time=00:00:00.80 bitrate=2621.9kbits/s speed=0.00839x elapsed=0:01:35.32    \nframe=   99 fps=1.0 q=38.0 size=     256KiB time=00:00:00.80 bitrate=2594.9kbits/s speed=0.00843x elapsed=0:01:35.83    \nframe=   99 fps=1.0 q=38.0 size=     256KiB time=00:00:00.80 bitrate=2594.9kbits/s speed=0.00839x elapsed=0:01:36.38    \nframe=  100 fps=1.0 q=30.8 size=     256KiB time=00:00:00.81 bitrate=2568.4kbits/s speed=0.00843x elapsed=0:01:36.92    \nframe=  102 fps=1.0 q=38.0 size=     256KiB time=00:00:00.83 bitrate=2517.0kbits/s speed=0.00855x elapsed=0:01:37.42    \nframe=  102 fps=1.0 q=38.0 size=     256KiB time=00:00:00.83 bitrate=2517.0kbits/s speed=0.00851x elapsed=0:01:37.94    \nframe=  103 fps=1.0 q=37.9 size=     256KiB time=00:00:00.84 bitrate=2492.1kbits/s speed=0.00855x elapsed=0:01:38.45    \nframe=  104 fps=1.1 q=37.9 size=     256KiB time=00:00:00.85 bitrate=2467.7kbits/s speed=0.00859x elapsed=0:01:38.97    \nframe=  105 fps=1.1 q=32.0 size=     256KiB time=00:00:00.85 bitrate=2443.7kbits/s speed=0.00863x elapsed=0:01:39.49    \nframe=  107 fps=1.1 q=37.9 size=     256KiB time=00:00:00.87 bitrate=2397.1kbits/s speed=0.00875x elapsed=0:01:40.01    \nframe=  107 fps=1.1 q=37.9 size=     256KiB time=00:00:00.87 bitrate=2397.1kbits/s speed=0.0087x elapsed=0:01:40.54    \nframe=  107 fps=1.1 q=37.9 size=     256KiB time=00:00:00.87 bitrate=2397.1kbits/s speed=0.00866x elapsed=0:01:41.06    \nframe=  109 fps=1.1 q=38.9 size=     256KiB time=00:00:00.89 bitrate=2352.3kbits/s speed=0.00878x elapsed=0:01:41.58    \nframe=  110 fps=1.1 q=31.2 size=     256KiB time=00:00:00.90 bitrate=2330.6kbits/s speed=0.00881x elapsed=0:01:42.12    \nframe=  111 fps=1.1 q=36.8 size=     256KiB time=00:00:00.90 bitrate=2309.2kbits/s speed=0.00885x elapsed=0:01:42.64    \nframe=  112 fps=1.1 q=38.9 size=     256KiB time=00:00:00.91 bitrate=2288.2kbits/s speed=0.00888x elapsed=0:01:43.17    \nframe=  112 fps=1.1 q=38.9 size=     256KiB time=00:00:00.91 bitrate=2288.2kbits/s speed=0.00884x elapsed=0:01:43.73    \nframe=  113 fps=1.1 q=39.0 size=     256KiB time=00:00:00.92 bitrate=2267.6kbits/s speed=0.00887x elapsed=0:01:44.26    \nframe=  114 fps=1.1 q=31.8 size=     256KiB time=00:00:00.93 bitrate=2247.3kbits/s speed=0.00891x elapsed=0:01:44.78    \nframe=  115 fps=1.1 q=36.3 size=     256KiB time=00:00:00.94 bitrate=2227.4kbits/s speed=0.00894x elapsed=0:01:45.34    \nframe=  116 fps=1.1 q=37.9 size=     256KiB time=00:00:00.95 bitrate=2207.9kbits/s speed=0.00897x elapsed=0:01:45.87    \nframe=  117 fps=1.1 q=38.0 size=     256KiB time=00:00:00.95 bitrate=2188.7kbits/s speed=0.00901x elapsed=0:01:46.40    \nframe=  117 fps=1.1 q=38.0 size=     256KiB time=00:00:00.95 bitrate=2188.7kbits/s speed=0.00896x elapsed=0:01:46.93    \nframe=  117 fps=1.1 q=38.0 size=     256KiB time=00:00:00.95 bitrate=2188.7kbits/s speed=0.00892x elapsed=0:01:47.47    \nframe=  118 fps=1.1 q=31.4 size=     256KiB time=00:00:00.96 bitrate=2169.8kbits/s speed=0.00895x elapsed=0:01:48.01    \nframe=  119 fps=1.1 q=36.3 size=     256KiB time=00:00:00.97 bitrate=2151.3kbits/s speed=0.00898x elapsed=0:01:48.52    \nframe=  120 fps=1.1 q=37.9 size=     256KiB time=00:00:00.98 bitrate=2133.1kbits/s speed=0.00902x elapsed=0:01:49.04    \nframe=  121 fps=1.1 q=38.0 size=     256KiB time=00:00:00.99 bitrate=2115.1kbits/s speed=0.00905x elapsed=0:01:49.56    \nframe=  123 fps=1.1 q=36.3 size=     256KiB time=00:00:01.00 bitrate=2080.2kbits/s speed=0.00916x elapsed=0:01:50.07    \nframe=  124 fps=1.1 q=38.0 size=     256KiB time=00:00:01.01 bitrate=2063.1kbits/s speed=0.00919x elapsed=0:01:50.59    \nframe=  124 fps=1.1 q=38.0 size=     256KiB time=00:00:01.01 bitrate=2063.1kbits/s speed=0.00915x elapsed=0:01:51.15    \nframe=  125 fps=1.1 q=38.0 size=     256KiB time=00:00:01.02 bitrate=2046.3kbits/s speed=0.00918x elapsed=0:01:51.66    \nframe=  126 fps=1.1 q=31.0 size=     256KiB time=00:00:01.03 bitrate=2029.8kbits/s speed=0.00921x elapsed=0:01:52.18    \nframe=  128 fps=1.1 q=37.9 size=     256KiB time=00:00:01.05 bitrate=1997.6kbits/s speed=0.00932x elapsed=0:01:52.71    \nframe=  128 fps=1.1 q=37.9 size=     256KiB time=00:00:01.05 bitrate=1997.6kbits/s speed=0.00927x elapsed=0:01:53.25    \nframe=  130 fps=1.1 q=31.4 size=     256KiB time=00:00:01.05 bitrate=1981.9kbits/s speed=0.0093x elapsed=0:01:53.78    \nframe=  131 fps=1.1 q=35.8 size=     256KiB time=00:00:01.07 bitrate=1951.2kbits/s speed=0.0094x elapsed=0:01:54.32    \nframe=  131 fps=1.1 q=35.8 size=     256KiB time=00:00:01.07 bitrate=1951.2kbits/s speed=0.00936x elapsed=0:01:54.83    \nframe=  132 fps=1.1 q=38.0 size=     256KiB time=00:00:01.08 bitrate=1936.2kbits/s speed=0.00939x elapsed=0:01:55.38    \nframe=  134 fps=1.2 q=31.2 size=     256KiB time=00:00:01.10 bitrate=1906.8kbits/s speed=0.00949x elapsed=0:01:55.91    \nframe=  135 fps=1.2 q=36.2 size=     512KiB time=00:00:01.10 bitrate=3784.7kbits/s speed=0.00952x elapsed=0:01:56.43    \nframe=  136 fps=1.2 q=38.0 size=     512KiB time=00:00:01.11 bitrate=3756.4kbits/s speed=0.00955x elapsed=0:01:56.95    \nframe=  137 fps=1.2 q=37.9 size=     512KiB time=00:00:01.12 bitrate=3728.6kbits/s speed=0.00958x elapsed=0:01:57.49    \nframe=  137 fps=1.2 q=37.9 size=     512KiB time=00:00:01.12 bitrate=3728.6kbits/s speed=0.00953x elapsed=0:01:58.02    \nframe=  139 fps=1.2 q=36.0 size=     512KiB time=00:00:01.14 bitrate=3674.2kbits/s speed=0.00963x elapsed=0:01:58.55    \nframe=  139 fps=1.2 q=36.0 size=     512KiB time=00:00:01.14 bitrate=3674.2kbits/s speed=0.00959x elapsed=0:01:59.08    \nframe=  140 fps=1.2 q=38.0 size=     512KiB time=00:00:01.15 bitrate=3647.5kbits/s speed=0.00962x elapsed=0:01:59.60    \nframe=  140 fps=1.2 q=38.0 size=     512KiB time=00:00:01.15 bitrate=3647.5kbits/s speed=0.00957x elapsed=0:02:00.15    \nframe=  143 fps=1.2 q=36.2 size=     512KiB time=00:00:01.16 bitrate=3595.4kbits/s speed=0.00967x elapsed=0:02:00.67    \nframe=  143 fps=1.2 q=36.2 size=     512KiB time=00:00:01.17 bitrate=3569.9kbits/s speed=0.00969x elapsed=0:02:01.22    \nframe=  143 fps=1.2 q=36.2 size=     512KiB time=00:00:01.17 bitrate=3569.9kbits/s speed=0.00965x elapsed=0:02:01.74    \nframe=  144 fps=1.2 q=38.0 size=     512KiB time=00:00:01.18 bitrate=3544.8kbits/s speed=0.00968x elapsed=0:02:02.27    \nframe=  145 fps=1.2 q=38.0 size=     512KiB time=00:00:01.19 bitrate=3520.0kbits/s speed=0.0097x elapsed=0:02:02.82    \nframe=  145 fps=1.2 q=38.0 size=     512KiB time=00:00:01.19 bitrate=3520.0kbits/s speed=0.00966x elapsed=0:02:03.34    \nframe=  146 fps=1.2 q=31.5 size=     512KiB time=00:00:01.20 bitrate=3495.5kbits/s speed=0.00969x elapsed=0:02:03.88    \nframe=  147 fps=1.2 q=36.3 size=     512KiB time=00:00:01.20 bitrate=3471.4kbits/s speed=0.00971x elapsed=0:02:04.41    \nframe=  147 fps=1.2 q=36.3 size=     512KiB time=00:00:01.20 bitrate=3471.4kbits/s speed=0.00967x elapsed=0:02:04.94    \nframe=  149 fps=1.2 q=38.0 size=     512KiB time=00:00:01.22 bitrate=3424.2kbits/s speed=0.00976x elapsed=0:02:05.47    \nframe=  149 fps=1.2 q=38.0 size=     512KiB time=00:00:01.22 bitrate=3424.2kbits/s speed=0.00972x elapsed=0:02:05.98    \nframe=  151 fps=1.2 q=36.2 size=     512KiB time=00:00:01.24 bitrate=3378.2kbits/s speed=0.00981x elapsed=0:02:06.51    \nframe=  151 fps=1.2 q=36.2 size=     512KiB time=00:00:01.24 bitrate=3378.2kbits/s speed=0.00977x elapsed=0:02:07.05    \nframe=  153 fps=1.2 q=38.0 size=     512KiB time=00:00:01.25 bitrate=3333.5kbits/s speed=0.00986x elapsed=0:02:07.60    \nframe=  153 fps=1.2 q=38.0 size=     512KiB time=00:00:01.25 bitrate=3333.5kbits/s speed=0.00982x elapsed=0:02:08.13    \nframe=  155 fps=1.2 q=36.4 size=     512KiB time=00:00:01.27 bitrate=3289.9kbits/s speed=0.00991x elapsed=0:02:08.65    \nframe=  156 fps=1.2 q=38.0 size=     512KiB time=00:00:01.27 bitrate=3289.9kbits/s speed=0.00987x elapsed=0:02:09.18    \nframe=  156 fps=1.2 q=38.0 size=     512KiB time=00:00:01.28 bitrate=3268.6kbits/s speed=0.00989x elapsed=0:02:09.70    \nframe=  156 fps=1.2 q=38.0 size=     512KiB time=00:00:01.28 bitrate=3268.6kbits/s speed=0.00985x elapsed=0:02:10.23    \nframe=  157 fps=1.2 q=37.9 size=     512KiB time=00:00:01.29 bitrate=3247.5kbits/s speed=0.00988x elapsed=0:02:10.73    \nframe=  157 fps=1.2 q=37.9 size=     512KiB time=00:00:01.29 bitrate=3247.5kbits/s speed=0.00984x elapsed=0:02:11.26    \nframe=  159 fps=1.2 q=36.3 size=     512KiB time=00:00:01.30 bitrate=3206.1kbits/s speed=0.00993x elapsed=0:02:11.77    \nframe=  160 fps=1.2 q=37.9 size=     512KiB time=00:00:01.31 bitrate=3185.8kbits/s speed=0.00995x elapsed=0:02:12.29    \nframe=  160 fps=1.2 q=37.9 size=     512KiB time=00:00:01.31 bitrate=3185.8kbits/s speed=0.00991x elapsed=0:02:12.83    \nframe=  161 fps=1.2 q=38.0 size=     512KiB time=00:00:01.32 bitrate=3165.8kbits/s speed=0.00993x elapsed=0:02:13.36    \nframe=  162 fps=1.2 q=31.6 size=     512KiB time=00:00:01.33 bitrate=3146.0kbits/s speed=0.00996x elapsed=0:02:13.89    \nframe=  163 fps=1.2 q=36.0 size=     512KiB time=00:00:01.34 bitrate=3126.5kbits/s speed=0.00998x elapsed=0:02:14.42    \nframe=  164 fps=1.2 q=37.9 size=     512KiB time=00:00:01.35 bitrate=3107.2kbits/s speed=0.01x elapsed=0:02:14.94    \nframe=  164 fps=1.2 q=37.9 size=     512KiB time=00:00:01.35 bitrate=3107.2kbits/s speed=0.00997x elapsed=0:02:15.45    \nframe=  165 fps=1.2 q=37.8 size=     512KiB time=00:00:01.35 bitrate=3088.1kbits/s speed=0.00999x elapsed=0:02:15.98    \nframe=  166 fps=1.2 q=31.3 size=     512KiB time=00:00:01.36 bitrate=3069.3kbits/s speed=0.01x elapsed=0:02:16.52    \nframe=  167 fps=1.2 q=36.6 size=     512KiB time=00:00:01.37 bitrate=3050.7kbits/s speed=0.01x elapsed=0:02:17.03    \nframe=  169 fps=1.2 q=37.9 size=     512KiB time=00:00:01.39 bitrate=3014.1kbits/s speed=0.0101x elapsed=0:02:17.59    \nframe=  170 fps=1.2 q=37.9 size=     512KiB time=00:00:01.40 bitrate=2996.2kbits/s speed=0.0101x elapsed=0:02:18.14    \nframe=  171 fps=1.2 q=31.5 size=     512KiB time=00:00:01.40 bitrate=2978.5kbits/s speed=0.0102x elapsed=0:02:18.70    \nframe=  172 fps=1.2 q=36.1 size=     512KiB time=00:00:01.41 bitrate=2960.9kbits/s speed=0.0102x elapsed=0:02:19.22    \nframe=  173 fps=1.2 q=38.0 size=     512KiB time=00:00:01.42 bitrate=2943.6kbits/s speed=0.0102x elapsed=0:02:19.76    \nframe=  173 fps=1.2 q=38.0 size=     512KiB time=00:00:01.42 bitrate=2943.6kbits/s speed=0.0102x elapsed=0:02:20.30    \nframe=  174 fps=1.2 q=38.0 size=     512KiB time=00:00:01.43 bitrate=2926.5kbits/s speed=0.0102x elapsed=0:02:20.83    \nframe=  175 fps=1.2 q=31.7 size=     512KiB time=00:00:01.44 bitrate=2909.6kbits/s speed=0.0102x elapsed=0:02:21.37    \nframe=  176 fps=1.2 q=36.1 size=     512KiB time=00:00:01.45 bitrate=2892.9kbits/s speed=0.0102x elapsed=0:02:21.88    \nframe=  177 fps=1.2 q=38.0 size=     512KiB time=00:00:01.45 bitrate=2876.3kbits/s speed=0.0102x elapsed=0:02:22.40    \nframe=  178 fps=1.2 q=38.0 size=     512KiB time=00:00:01.46 bitrate=2860.0kbits/s speed=0.0103x elapsed=0:02:22.92    \nframe=  178 fps=1.2 q=38.0 size=     512KiB time=00:00:01.46 bitrate=2860.0kbits/s speed=0.0102x elapsed=0:02:23.46    \nframe=  179 fps=1.2 q=31.6 size=     512KiB time=00:00:01.47 bitrate=2843.8kbits/s speed=0.0102x elapsed=0:02:23.98    \nframe=  180 fps=1.2 q=36.0 size=     512KiB time=00:00:01.48 bitrate=2827.9kbits/s speed=0.0103x elapsed=0:02:24.51    \nframe=  180 fps=1.2 q=36.0 size=     512KiB time=00:00:01.48 bitrate=2827.9kbits/s speed=0.0102x elapsed=0:02:25.07    \nframe=  181 fps=1.2 q=37.9 size=     512KiB time=00:00:01.49 bitrate=2812.1kbits/s speed=0.0102x elapsed=0:02:25.60    \nframe=  182 fps=1.2 q=38.0 size=     512KiB time=00:00:01.50 bitrate=2796.4kbits/s speed=0.0103x elapsed=0:02:26.11    \nframe=  183 fps=1.2 q=31.7 size=     512KiB time=00:00:01.50 bitrate=2781.0kbits/s speed=0.0103x elapsed=0:02:26.63    \nframe=  184 fps=1.3 q=36.4 size=     512KiB time=00:00:01.51 bitrate=2765.7kbits/s speed=0.0103x elapsed=0:02:27.16    \nframe=  185 fps=1.3 q=38.0 size=     512KiB time=00:00:01.52 bitrate=2750.6kbits/s speed=0.0103x elapsed=0:02:27.69    \nframe=  185 fps=1.2 q=38.0 size=     512KiB time=00:00:01.52 bitrate=2750.6kbits/s speed=0.0103x elapsed=0:02:28.22    \nframe=  186 fps=1.3 q=38.0 size=     512KiB time=00:00:01.53 bitrate=2735.6kbits/s speed=0.0103x elapsed=0:02:28.76    \nframe=  187 fps=1.3 q=31.3 size=     512KiB time=00:00:01.54 bitrate=2720.9kbits/s speed=0.0103x elapsed=0:02:29.30    \nframe=  189 fps=1.3 q=38.0 size=     512KiB time=00:00:01.55 bitrate=2691.8kbits/s speed=0.0104x elapsed=0:02:29.83    \nframe=  189 fps=1.3 q=38.0 size=     512KiB time=00:00:01.55 bitrate=2691.8kbits/s speed=0.0104x elapsed=0:02:30.34    \nframe=  189 fps=1.3 q=38.0 size=     512KiB time=00:00:01.55 bitrate=2691.8kbits/s speed=0.0103x elapsed=0:02:30.87    \nframe=  191 fps=1.3 q=31.6 size=     512KiB time=00:00:01.57 bitrate=2663.3kbits/s speed=0.0104x elapsed=0:02:31.39    \nframe=  192 fps=1.3 q=36.1 size=     512KiB time=00:00:01.58 bitrate=2649.3kbits/s speed=0.0104x elapsed=0:02:31.90    \nframe=  193 fps=1.3 q=38.0 size=     512KiB time=00:00:01.59 bitrate=2635.4kbits/s speed=0.0104x elapsed=0:02:32.42    \nframe=  194 fps=1.3 q=38.0 size=     512KiB time=00:00:01.60 bitrate=2621.7kbits/s speed=0.0105x elapsed=0:02:32.95    \nframe=  195 fps=1.3 q=31.4 size=     512KiB time=00:00:01.60 bitrate=2608.1kbits/s speed=0.0105x elapsed=0:02:33.47    \nframe=  196 fps=1.3 q=36.2 size=     512KiB time=00:00:01.61 bitrate=2594.6kbits/s speed=0.0105x elapsed=0:02:33.99    \nframe=  196 fps=1.3 q=36.2 size=     512KiB time=00:00:01.61 bitrate=2594.6kbits/s speed=0.0105x elapsed=0:02:34.51    \nframe=  197 fps=1.3 q=38.0 size=     512KiB time=00:00:01.62 bitrate=2581.3kbits/s speed=0.0105x elapsed=0:02:35.06    \nframe=  199 fps=1.3 q=31.6 size=     512KiB time=00:00:01.64 bitrate=2555.1kbits/s speed=0.0106x elapsed=0:02:35.58    \nframe=  200 fps=1.3 q=36.0 size=     768KiB time=00:00:01.65 bitrate=3813.2kbits/s speed=0.0106x elapsed=0:02:36.11    \nframe=  201 fps=1.3 q=38.0 size=     768KiB time=00:00:01.65 bitrate=3794.1kbits/s speed=0.0106x elapsed=0:02:36.64    \nframe=  203 fps=1.3 q=31.2 size=     768KiB time=00:00:01.67 bitrate=3756.3kbits/s speed=0.0107x elapsed=0:02:37.16    \nframe=  204 fps=1.3 q=36.0 size=     768KiB time=00:00:01.68 bitrate=3737.7kbits/s speed=0.0107x elapsed=0:02:37.70    \nframe=  205 fps=1.3 q=37.9 size=     768KiB time=00:00:01.69 bitrate=3719.3kbits/s speed=0.0107x elapsed=0:02:38.23    \nframe=  206 fps=1.3 q=38.0 size=     768KiB time=00:00:01.70 bitrate=3701.1kbits/s speed=0.0107x elapsed=0:02:38.76    \nframe=  207 fps=1.3 q=31.4 size=     768KiB time=00:00:01.70 bitrate=3683.0kbits/s speed=0.0107x elapsed=0:02:39.28    \nframe=  208 fps=1.3 q=36.0 size=     768KiB time=00:00:01.71 bitrate=3665.1kbits/s speed=0.0107x elapsed=0:02:39.80    \nframe=  209 fps=1.3 q=38.0 size=     768KiB time=00:00:01.72 bitrate=3647.4kbits/s speed=0.0108x elapsed=0:02:40.33    \nframe=  210 fps=1.3 q=37.9 size=     768KiB time=00:00:01.73 bitrate=3629.9kbits/s speed=0.0108x elapsed=0:02:40.84    \nframe=  212 fps=1.3 q=36.0 size=     768KiB time=00:00:01.75 bitrate=3595.3kbits/s speed=0.0108x elapsed=0:02:41.35    \nframe=  213 fps=1.3 q=38.0 size=     768KiB time=00:00:01.75 bitrate=3578.3kbits/s speed=0.0109x elapsed=0:02:41.87    \nframe=  215 fps=1.3 q=31.3 size=     768KiB time=00:00:01.77 bitrate=3544.7kbits/s speed=0.0109x elapsed=0:02:42.38    \nframe=  217 fps=1.3 q=38.9 size=     768KiB time=00:00:01.79 bitrate=3511.7kbits/s speed=0.011x elapsed=0:02:42.90    \nframe=  219 fps=1.3 q=31.4 size=     768KiB time=00:00:01.80 bitrate=3479.3kbits/s speed=0.0111x elapsed=0:02:43.41    \nframe=  221 fps=1.3 q=38.0 size=     768KiB time=00:00:01.82 bitrate=3447.6kbits/s speed=0.0111x elapsed=0:02:43.93    \nframe=  222 fps=1.3 q=37.9 size=     768KiB time=00:00:01.83 bitrate=3431.9kbits/s speed=0.0111x elapsed=0:02:44.45    \nframe=  224 fps=1.4 q=36.4 size=     768KiB time=00:00:01.85 bitrate=3401.0kbits/s speed=0.0112x elapsed=0:02:44.97    \nframe=  226 fps=1.4 q=37.9 size=     768KiB time=00:00:01.86 bitrate=3370.6kbits/s speed=0.0113x elapsed=0:02:45.50    \nframe=  228 fps=1.4 q=37.1 size=     768KiB time=00:00:01.88 bitrate=3340.8kbits/s speed=0.0113x elapsed=0:02:46.00    \nframe=  229 fps=1.4 q=38.0 size=     768KiB time=00:00:01.89 bitrate=3326.1kbits/s speed=0.0114x elapsed=0:02:46.53    \nframe=  231 fps=1.4 q=31.5 size=     768KiB time=00:00:01.90 bitrate=3297.0kbits/s speed=0.0114x elapsed=0:02:47.03    \nframe=  232 fps=1.4 q=37.1 size=     768KiB time=00:00:01.91 bitrate=3282.7kbits/s speed=0.0114x elapsed=0:02:47.57    \nframe=  233 fps=1.4 q=38.9 size=     768KiB time=00:00:01.92 bitrate=3268.5kbits/s speed=0.0115x elapsed=0:02:48.08    \nframe=  235 fps=1.4 q=31.6 size=     768KiB time=00:00:01.94 bitrate=3240.4kbits/s speed=0.0115x elapsed=0:02:48.59    \nframe=  237 fps=1.4 q=38.8 size=     768KiB time=00:00:01.95 bitrate=3212.8kbits/s speed=0.0116x elapsed=0:02:49.12    \nframe=  238 fps=1.4 q=39.0 size=     768KiB time=00:00:01.96 bitrate=3199.2kbits/s speed=0.0116x elapsed=0:02:49.63    \nframe=  241 fps=1.4 q=39.0 size=     768KiB time=00:00:01.99 bitrate=3159.1kbits/s speed=0.0117x elapsed=0:02:50.16    \nframe=  242 fps=1.4 q=39.0 size=     768KiB time=00:00:02.00 bitrate=3145.9kbits/s speed=0.0117x elapsed=0:02:50.67    \nframe=  244 fps=1.4 q=37.1 size=     768KiB time=00:00:02.01 bitrate=3119.9kbits/s speed=0.0118x elapsed=0:02:51.20    \nframe=  246 fps=1.4 q=39.0 size=     768KiB time=00:00:02.03 bitrate=3094.3kbits/s speed=0.0118x elapsed=0:02:51.72    \nframe=  248 fps=1.4 q=36.8 size=     768KiB time=00:00:02.05 bitrate=3069.2kbits/s speed=0.0119x elapsed=0:02:52.22    \nframe=  249 fps=1.4 q=39.0 size=     768KiB time=00:00:02.05 bitrate=3056.7kbits/s speed=0.0119x elapsed=0:02:52.74    \nframe=  249 fps=1.4 q=39.0 size=     768KiB time=00:00:02.05 bitrate=3056.7kbits/s speed=0.0119x elapsed=0:02:53.25    \nframe=  251 fps=1.4 q=29.3 size=     768KiB time=00:00:02.07 bitrate=3032.2kbits/s speed=0.0119x elapsed=0:02:53.77    \nframe=  253 fps=1.5 q=37.7 size=    1024KiB time=00:00:02.09 bitrate=4010.7kbits/s speed=0.012x elapsed=0:02:54.29    \nframe=  254 fps=1.5 q=38.8 size=    1024KiB time=00:00:02.10 bitrate=3994.7kbits/s speed=0.012x elapsed=0:02:54.80    \nframe=  257 fps=1.5 q=31.6 size=    1024KiB time=00:00:02.12 bitrate=3947.7kbits/s speed=0.0121x elapsed=0:02:55.35    \nframe=  258 fps=1.5 q=37.0 size=    1024KiB time=00:00:02.13 bitrate=3932.3kbits/s speed=0.0121x elapsed=0:02:55.86    \nframe=  260 fps=1.5 q=38.9 size=    1024KiB time=00:00:02.15 bitrate=3901.8kbits/s speed=0.0122x elapsed=0:02:56.38    \nframe=  262 fps=1.5 q=37.0 size=    1024KiB time=00:00:02.15 bitrate=3886.8kbits/s speed=0.0122x elapsed=0:02:56.92    \nframe=  264 fps=1.5 q=38.9 size=    1024KiB time=00:00:02.18 bitrate=3842.3kbits/s speed=0.0123x elapsed=0:02:57.49    \nframe=  265 fps=1.5 q=31.8 size=    1024KiB time=00:00:02.19 bitrate=3827.7kbits/s speed=0.0123x elapsed=0:02:58.01    \nframe=  266 fps=1.5 q=34.8 size=    1024KiB time=00:00:02.20 bitrate=3813.2kbits/s speed=0.0123x elapsed=0:02:58.52    \nframe=  269 fps=1.5 q=39.0 size=    1024KiB time=00:00:02.22 bitrate=3770.3kbits/s speed=0.0124x elapsed=0:02:59.04    \nframe=  270 fps=1.5 q=32.0 size=    1024KiB time=00:00:02.23 bitrate=3756.3kbits/s speed=0.0124x elapsed=0:02:59.56    \nframe=  272 fps=1.5 q=38.9 size=    1024KiB time=00:00:02.25 bitrate=3728.4kbits/s speed=0.0125x elapsed=0:03:00.09    \nframe=  273 fps=1.5 q=38.9 size=    1024KiB time=00:00:02.25 bitrate=3714.7kbits/s speed=0.0125x elapsed=0:03:00.59    \nframe=  275 fps=1.5 q=36.9 size=    1024KiB time=00:00:02.27 bitrate=3687.5kbits/s speed=0.0126x elapsed=0:03:01.12    \nframe=  277 fps=1.5 q=39.0 size=    1024KiB time=00:00:02.29 bitrate=3660.6kbits/s speed=0.0126x elapsed=0:03:01.63    \nframe=  278 fps=1.5 q=32.3 size=    1024KiB time=00:00:02.30 bitrate=3647.4kbits/s speed=0.0126x elapsed=0:03:02.15    \nframe=  280 fps=1.5 q=38.9 size=    1024KiB time=00:00:02.31 bitrate=3621.1kbits/s speed=0.0127x elapsed=0:03:02.67    \nframe=  281 fps=1.5 q=39.0 size=    1024KiB time=00:00:02.32 bitrate=3608.2kbits/s speed=0.0127x elapsed=0:03:03.19    \nframe=  282 fps=1.5 q=31.9 size=    1024KiB time=00:00:02.33 bitrate=3595.3kbits/s speed=0.0127x elapsed=0:03:03.71    \nframe=  285 fps=1.5 q=39.0 size=    1024KiB time=00:00:02.35 bitrate=3557.2kbits/s speed=0.0128x elapsed=0:03:04.23    \nframe=  286 fps=1.5 q=31.8 size=    1024KiB time=00:00:02.36 bitrate=3544.6kbits/s speed=0.0128x elapsed=0:03:04.74    \nframe=  287 fps=1.5 q=37.3 size=    1024KiB time=00:00:02.37 bitrate=3532.2kbits/s speed=0.0128x elapsed=0:03:05.25    \nframe=  289 fps=1.6 q=39.0 size=    1024KiB time=00:00:02.39 bitrate=3507.6kbits/s speed=0.0129x elapsed=0:03:05.77    \nframe=  290 fps=1.6 q=32.2 size=    1024KiB time=00:00:02.40 bitrate=3495.4kbits/s speed=0.0129x elapsed=0:03:06.29    \nframe=  292 fps=1.6 q=39.0 size=    1024KiB time=00:00:02.41 bitrate=3471.3kbits/s speed=0.0129x elapsed=0:03:06.81    \nframe=  294 fps=1.6 q=32.1 size=    1024KiB time=00:00:02.43 bitrate=3447.5kbits/s speed=0.013x elapsed=0:03:07.34    \nframe=  296 fps=1.6 q=39.0 size=    1024KiB time=00:00:02.45 bitrate=3424.1kbits/s speed=0.013x elapsed=0:03:07.86    \nframe=  298 fps=1.6 q=32.4 size=    1024KiB time=00:00:02.46 bitrate=3400.9kbits/s speed=0.0131x elapsed=0:03:08.36    \nframe=  301 fps=1.6 q=39.0 size=    1024KiB time=00:00:02.49 bitrate=3366.8kbits/s speed=0.0132x elapsed=0:03:08.89    \nframe=  302 fps=1.6 q=31.8 size=    1024KiB time=00:00:02.50 bitrate=3355.6kbits/s speed=0.0132x elapsed=0:03:09.39    \nframe=  303 fps=1.6 q=37.3 size=    1024KiB time=00:00:02.50 bitrate=3344.4kbits/s speed=0.0132x elapsed=0:03:09.91    \nframe=  305 fps=1.6 q=39.0 size=    1024KiB time=00:00:02.52 bitrate=3322.4kbits/s speed=0.0133x elapsed=0:03:10.42    \nframe=  307 fps=1.6 q=37.2 size=    1024KiB time=00:00:02.54 bitrate=3300.6kbits/s speed=0.0133x elapsed=0:03:10.94    \nframe=  309 fps=1.6 q=39.0 size=    1024KiB time=00:00:02.55 bitrate=3279.1kbits/s speed=0.0134x elapsed=0:03:11.47    \nframe=  310 fps=1.6 q=31.8 size=    1024KiB time=00:00:02.56 bitrate=3268.4kbits/s speed=0.0134x elapsed=0:03:11.99    \nframe=  312 fps=1.6 q=38.9 size=    1024KiB time=00:00:02.58 bitrate=3247.3kbits/s speed=0.0134x elapsed=0:03:12.51    \nframe=  314 fps=1.6 q=31.9 size=    1024KiB time=00:00:02.60 bitrate=3226.5kbits/s speed=0.0135x elapsed=0:03:13.02    \nframe=  316 fps=1.6 q=38.9 size=    1024KiB time=00:00:02.61 bitrate=3206.0kbits/s speed=0.0135x elapsed=0:03:13.53    \nframe=  318 fps=1.6 q=31.9 size=    1024KiB time=00:00:02.63 bitrate=3185.7kbits/s speed=0.0136x elapsed=0:03:14.06    \nframe=  319 fps=1.6 q=37.0 size=    1280KiB time=00:00:02.64 bitrate=3969.5kbits/s speed=0.0136x elapsed=0:03:14.57    \nframe=  321 fps=1.6 q=39.0 size=    1280KiB time=00:00:02.65 bitrate=3944.6kbits/s speed=0.0136x elapsed=0:03:15.09    \nframe=  322 fps=1.6 q=32.2 size=    1280KiB time=00:00:02.66 bitrate=3932.3kbits/s speed=0.0136x elapsed=0:03:15.60    \nframe=  323 fps=1.6 q=37.4 size=    1280KiB time=00:00:02.67 bitrate=3920.0kbits/s speed=0.0136x elapsed=0:03:16.12    \nframe=  325 fps=1.7 q=39.0 size=    1280KiB time=00:00:02.69 bitrate=3895.8kbits/s speed=0.0137x elapsed=0:03:16.62    \nframe=  326 fps=1.7 q=32.3 size=    1280KiB time=00:00:02.70 bitrate=3883.7kbits/s speed=0.0137x elapsed=0:03:17.15    \nframe=  329 fps=1.7 q=38.9 size=    1280KiB time=00:00:02.72 bitrate=3848.1kbits/s speed=0.0138x elapsed=0:03:17.67    \nframe=  329 fps=1.7 q=38.9 size=    1280KiB time=00:00:02.72 bitrate=3848.1kbits/s speed=0.0138x elapsed=0:03:18.18    \nframe=  331 fps=1.7 q=37.2 size=    1280KiB time=00:00:02.74 bitrate=3824.7kbits/s speed=0.0138x elapsed=0:03:18.70    \nframe=  334 fps=1.7 q=32.3 size=    1280KiB time=00:00:02.76 bitrate=3790.2kbits/s speed=0.0139x elapsed=0:03:19.20    \nframe=  335 fps=1.7 q=37.3 size=    1280KiB time=00:00:02.77 bitrate=3778.8kbits/s speed=0.0139x elapsed=0:03:19.72    \nframe=  337 fps=1.7 q=39.0 size=    1280KiB time=00:00:02.79 bitrate=3756.2kbits/s speed=0.0139x elapsed=0:03:20.25    \nframe=  340 fps=1.7 q=39.0 size=    1280KiB time=00:00:02.81 bitrate=3722.9kbits/s speed=0.014x elapsed=0:03:20.75    \nframe=  341 fps=1.7 q=38.9 size=    1280KiB time=00:00:02.82 bitrate=3711.9kbits/s speed=0.014x elapsed=0:03:21.27    \nframe=  342 fps=1.7 q=31.8 size=    1280KiB time=00:00:02.83 bitrate=3701.0kbits/s speed=0.014x elapsed=0:03:21.78    \nframe=  344 fps=1.7 q=39.0 size=    1280KiB time=00:00:02.85 bitrate=3679.3kbits/s speed=0.0141x elapsed=0:03:22.30    \nframe=  347 fps=1.7 q=37.0 size=    1280KiB time=00:00:02.87 bitrate=3647.3kbits/s speed=0.0142x elapsed=0:03:22.83    \nframe=  348 fps=1.7 q=38.9 size=    1280KiB time=00:00:02.88 bitrate=3636.8kbits/s speed=0.0142x elapsed=0:03:23.33    \nframe=  350 fps=1.7 q=32.1 size=    1280KiB time=00:00:02.90 bitrate=3615.9kbits/s speed=0.0142x elapsed=0:03:23.86    \nframe=  351 fps=1.7 q=37.3 size=    1280KiB time=00:00:02.90 bitrate=3605.5kbits/s speed=0.0142x elapsed=0:03:24.38    \nframe=  353 fps=1.7 q=39.0 size=    1280KiB time=00:00:02.92 bitrate=3585.0kbits/s speed=0.0143x elapsed=0:03:24.90    \nframe=  356 fps=1.7 q=39.0 size=    1280KiB time=00:00:02.95 bitrate=3554.6kbits/s speed=0.0144x elapsed=0:03:25.41    \nframe=  358 fps=1.7 q=39.0 size=    1280KiB time=00:00:02.96 bitrate=3534.6kbits/s speed=0.0144x elapsed=0:03:25.93    \nframe=  359 fps=1.7 q=31.6 size=    1280KiB time=00:00:02.97 bitrate=3524.7kbits/s speed=0.0144x elapsed=0:03:26.45    \nframe=  361 fps=1.7 q=38.9 size=    1280KiB time=00:00:02.99 bitrate=3505.1kbits/s speed=0.0145x elapsed=0:03:26.97    \nframe=  363 fps=1.7 q=38.9 size=    1280KiB time=00:00:03.00 bitrate=3485.7kbits/s speed=0.0145x elapsed=0:03:27.50    \nframe=  366 fps=1.8 q=39.0 size=    1280KiB time=00:00:03.03 bitrate=3457.0kbits/s speed=0.0146x elapsed=0:03:28.00    \nframe=  367 fps=1.8 q=39.0 size=    1280KiB time=00:00:03.04 bitrate=3447.5kbits/s speed=0.0146x elapsed=0:03:28.52    \nframe=  369 fps=1.8 q=37.1 size=    1280KiB time=00:00:03.05 bitrate=3428.7kbits/s speed=0.0146x elapsed=0:03:29.05    \nframe=  371 fps=1.8 q=39.0 size=    1280KiB time=00:00:03.07 bitrate=3410.1kbits/s speed=0.0147x elapsed=0:03:29.57    \nframe=  372 fps=1.8 q=31.9 size=    1280KiB time=00:00:03.08 bitrate=3400.9kbits/s speed=0.0147x elapsed=0:03:30.09    \nframe=  375 fps=1.8 q=39.0 size=    1280KiB time=00:00:03.10 bitrate=3373.5kbits/s speed=0.0148x elapsed=0:03:30.60    \nframe=  377 fps=1.8 q=37.0 size=    1280KiB time=00:00:03.12 bitrate=3355.6kbits/s speed=0.0148x elapsed=0:03:31.11    \nframe=  379 fps=1.8 q=38.9 size=    1280KiB time=00:00:03.14 bitrate=3337.8kbits/s speed=0.0148x elapsed=0:03:31.67    \nframe=  379 fps=1.8 q=38.9 size=    1280KiB time=00:00:03.14 bitrate=3337.8kbits/s speed=0.0148x elapsed=0:03:32.22    \nframe=  380 fps=1.8 q=32.0 size=    1280KiB time=00:00:03.15 bitrate=3328.9kbits/s speed=0.0148x elapsed=0:03:32.77    \nframe=  381 fps=1.8 q=36.8 size=    1280KiB time=00:00:03.15 bitrate=3320.1kbits/s speed=0.0148x elapsed=0:03:33.29    \nframe=  383 fps=1.8 q=39.0 size=    1280KiB time=00:00:03.17 bitrate=3302.7kbits/s speed=0.0148x elapsed=0:03:33.80    \nframe=  383 fps=1.8 q=39.0 size=    1280KiB time=00:00:03.17 bitrate=3302.7kbits/s speed=0.0148x elapsed=0:03:34.35    \nframe=  384 fps=1.8 q=31.6 size=    1280KiB time=00:00:03.18 bitrate=3294.1kbits/s speed=0.0148x elapsed=0:03:34.87    \nframe=  385 fps=1.8 q=37.0 size=    1536KiB time=00:00:03.19 bitrate=3942.5kbits/s speed=0.0148x elapsed=0:03:35.41    \nframe=  387 fps=1.8 q=39.0 size=    1536KiB time=00:00:03.20 bitrate=3922.1kbits/s speed=0.0149x elapsed=0:03:35.95    \nframe=  387 fps=1.8 q=39.0 size=    1536KiB time=00:00:03.20 bitrate=3922.1kbits/s speed=0.0148x elapsed=0:03:36.47    \nframe=  388 fps=1.8 q=32.1 size=    1536KiB time=00:00:03.21 bitrate=3911.9kbits/s speed=0.0148x elapsed=0:03:37.01    \nframe=  390 fps=1.8 q=38.9 size=    1536KiB time=00:00:03.23 bitrate=3891.7kbits/s speed=0.0149x elapsed=0:03:37.54    \nframe=  391 fps=1.8 q=38.9 size=    1536KiB time=00:00:03.24 bitrate=3881.7kbits/s speed=0.0149x elapsed=0:03:38.05    \nframe=  391 fps=1.8 q=38.9 size=    1536KiB time=00:00:03.24 bitrate=3881.7kbits/s speed=0.0148x elapsed=0:03:38.57    \nframe=  392 fps=1.8 q=31.8 size=    1536KiB time=00:00:03.25 bitrate=3871.8kbits/s speed=0.0148x elapsed=0:03:39.10    \nframe=  393 fps=1.8 q=37.4 size=    1536KiB time=00:00:03.25 bitrate=3861.9kbits/s speed=0.0148x elapsed=0:03:39.63    \nframe=  394 fps=1.8 q=38.9 size=    1536KiB time=00:00:03.26 bitrate=3852.0kbits/s speed=0.0148x elapsed=0:03:40.15    \nframe=  396 fps=1.8 q=38.9 size=    1536KiB time=00:00:03.28 bitrate=3832.5kbits/s speed=0.0149x elapsed=0:03:40.66    \nframe=  397 fps=1.8 q=33.0 size=    1536KiB time=00:00:03.29 bitrate=3822.8kbits/s speed=0.0149x elapsed=0:03:41.20    \nframe=  397 fps=1.8 q=33.0 size=    1536KiB time=00:00:03.29 bitrate=3822.8kbits/s speed=0.0148x elapsed=0:03:41.72    \nframe=  398 fps=1.8 q=36.6 size=    1536KiB time=00:00:03.30 bitrate=3813.1kbits/s speed=0.0148x elapsed=0:03:42.23    \nframe=  399 fps=1.8 q=38.9 size=    1536KiB time=00:00:03.30 bitrate=3803.5kbits/s speed=0.0149x elapsed=0:03:42.76    \nframe=  401 fps=1.8 q=32.0 size=    1536KiB time=00:00:03.32 bitrate=3784.4kbits/s speed=0.0149x elapsed=0:03:43.30    \nframe=  401 fps=1.8 q=32.0 size=    1536KiB time=00:00:03.32 bitrate=3784.4kbits/s speed=0.0149x elapsed=0:03:43.85    \nframe=  402 fps=1.8 q=36.9 size=    1536KiB time=00:00:03.33 bitrate=3775.0kbits/s speed=0.0149x elapsed=0:03:44.37    \nframe=  402 fps=1.8 q=36.9 size=    1536KiB time=00:00:03.33 bitrate=3775.0kbits/s speed=0.0148x elapsed=0:03:44.90    \nframe=  403 fps=1.8 q=38.8 size=    1536KiB time=00:00:03.34 bitrate=3765.6kbits/s speed=0.0148x elapsed=0:03:45.42    \nframe=  404 fps=1.8 q=39.0 size=    1536KiB time=00:00:03.35 bitrate=3756.2kbits/s speed=0.0148x elapsed=0:03:45.93    \nframe=  404 fps=1.8 q=39.0 size=    1536KiB time=00:00:03.35 bitrate=3756.2kbits/s speed=0.0148x elapsed=0:03:46.45    \nframe=  404 fps=1.8 q=39.0 size=    1536KiB time=00:00:03.35 bitrate=3756.2kbits/s speed=0.0148x elapsed=0:03:46.97    \nframe=  404 fps=1.8 q=39.0 size=    1536KiB time=00:00:03.35 bitrate=3756.2kbits/s speed=0.0147x elapsed=0:03:47.48    \nframe=  405 fps=1.8 q=32.6 size=    1536KiB time=00:00:03.35 bitrate=3746.9kbits/s speed=0.0147x elapsed=0:03:48.00    \nframe=  405 fps=1.8 q=32.6 size=    1536KiB time=00:00:03.35 bitrate=3746.9kbits/s speed=0.0147x elapsed=0:03:48.52    \nframe=  405 fps=1.8 q=32.6 size=    1536KiB time=00:00:03.35 bitrate=3746.9kbits/s speed=0.0147x elapsed=0:03:49.04    \nframe=  406 fps=1.8 q=37.4 size=    1536KiB time=00:00:03.36 bitrate=3737.6kbits/s speed=0.0147x elapsed=0:03:49.55    \nframe=  406 fps=1.8 q=37.4 size=    1536KiB time=00:00:03.36 bitrate=3737.6kbits/s speed=0.0146x elapsed=0:03:50.08    \nframe=  407 fps=1.8 q=38.9 size=    1536KiB time=00:00:03.37 bitrate=3728.4kbits/s speed=0.0146x elapsed=0:03:50.60    \nframe=  407 fps=1.8 q=38.9 size=    1536KiB time=00:00:03.37 bitrate=3728.4kbits/s speed=0.0146x elapsed=0:03:51.12    \nframe=  407 fps=1.8 q=38.9 size=    1536KiB time=00:00:03.37 bitrate=3728.4kbits/s speed=0.0146x elapsed=0:03:51.63    \nframe=  408 fps=1.8 q=38.9 size=    1536KiB time=00:00:03.38 bitrate=3719.2kbits/s speed=0.0146x elapsed=0:03:52.15    \nframe=  409 fps=1.8 q=38.9 size=    1536KiB time=00:00:03.39 bitrate=3710.1kbits/s speed=0.0146x elapsed=0:03:52.66    \nframe=  409 fps=1.8 q=38.9 size=    1536KiB time=00:00:03.39 bitrate=3710.1kbits/s speed=0.0145x elapsed=0:03:53.18    \nframe=  409 fps=1.8 q=38.9 size=    1536KiB time=00:00:03.39 bitrate=3710.1kbits/s speed=0.0145x elapsed=0:03:53.69    \nframe=  409 fps=1.7 q=38.9 size=    1536KiB time=00:00:03.39 bitrate=3710.1kbits/s speed=0.0145x elapsed=0:03:54.21    \nframe=  410 fps=1.7 q=32.0 size=    1536KiB time=00:00:03.40 bitrate=3701.0kbits/s speed=0.0145x elapsed=0:03:54.72    \nframe=  410 fps=1.7 q=32.0 size=    1536KiB time=00:00:03.40 bitrate=3701.0kbits/s speed=0.0145x elapsed=0:03:55.24    \nframe=  410 fps=1.7 q=32.0 size=    1536KiB time=00:00:03.40 bitrate=3701.0kbits/s speed=0.0144x elapsed=0:03:55.75    \nframe=  411 fps=1.7 q=37.3 size=    1536KiB time=00:00:03.40 bitrate=3691.9kbits/s speed=0.0144x elapsed=0:03:56.27    \nframe=  411 fps=1.7 q=37.3 size=    1536KiB time=00:00:03.40 bitrate=3691.9kbits/s speed=0.0144x elapsed=0:03:56.78    \nframe=  411 fps=1.7 q=37.3 size=    1536KiB time=00:00:03.40 bitrate=3691.9kbits/s speed=0.0144x elapsed=0:03:57.30    \nframe=  412 fps=1.7 q=39.0 size=    1536KiB time=00:00:03.41 bitrate=3682.9kbits/s speed=0.0144x elapsed=0:03:57.81    \nframe=  413 fps=1.7 q=39.0 size=    1536KiB time=00:00:03.42 bitrate=3673.9kbits/s speed=0.0144x elapsed=0:03:58.33    \nframe=  413 fps=1.7 q=39.0 size=    1536KiB time=00:00:03.42 bitrate=3673.9kbits/s speed=0.0143x elapsed=0:03:58.85    \nframe=  413 fps=1.7 q=39.0 size=    1536KiB time=00:00:03.42 bitrate=3673.9kbits/s speed=0.0143x elapsed=0:03:59.36    \nframe=  413 fps=1.7 q=39.0 size=    1536KiB time=00:00:03.42 bitrate=3673.9kbits/s speed=0.0143x elapsed=0:03:59.88    \nframe=  413 fps=1.7 q=39.0 size=    1536KiB time=00:00:03.42 bitrate=3673.9kbits/s speed=0.0142x elapsed=0:04:00.39    \nframe=  413 fps=1.7 q=39.0 size=    1536KiB time=00:00:03.42 bitrate=3673.9kbits/s speed=0.0142x elapsed=0:04:00.91    \nframe=  414 fps=1.7 q=31.4 size=    1536KiB time=00:00:03.43 bitrate=3665.0kbits/s speed=0.0142x elapsed=0:04:01.43    \nframe=  415 fps=1.7 q=37.1 size=    1536KiB time=00:00:03.44 bitrate=3656.2kbits/s speed=0.0142x elapsed=0:04:01.94    \nframe=  416 fps=1.7 q=39.0 size=    1536KiB time=00:00:03.45 bitrate=3647.3kbits/s speed=0.0142x elapsed=0:04:02.45    \nframe=  416 fps=1.7 q=39.0 size=    1536KiB time=00:00:03.45 bitrate=3647.3kbits/s speed=0.0142x elapsed=0:04:02.97    \nframe=  417 fps=1.7 q=38.9 size=    1536KiB time=00:00:03.45 bitrate=3638.5kbits/s speed=0.0142x elapsed=0:04:03.48    \nframe=  417 fps=1.7 q=38.9 size=    1536KiB time=00:00:03.45 bitrate=3638.5kbits/s speed=0.0142x elapsed=0:04:04.00    \nframe=  417 fps=1.7 q=38.9 size=    1536KiB time=00:00:03.45 bitrate=3638.5kbits/s speed=0.0141x elapsed=0:04:04.52    \nframe=  417 fps=1.7 q=38.9 size=    1536KiB time=00:00:03.45 bitrate=3638.5kbits/s speed=0.0141x elapsed=0:04:05.04    \nframe=  418 fps=1.7 q=32.1 size=    1536KiB time=00:00:03.46 bitrate=3629.8kbits/s speed=0.0141x elapsed=0:04:05.55    \nframe=  418 fps=1.7 q=32.1 size=    1536KiB time=00:00:03.46 bitrate=3629.8kbits/s speed=0.0141x elapsed=0:04:06.07    \nframe=  419 fps=1.7 q=37.1 size=    1536KiB time=00:00:03.47 bitrate=3621.1kbits/s speed=0.0141x elapsed=0:04:06.58    \nframe=  419 fps=1.7 q=37.1 size=    1536KiB time=00:00:03.47 bitrate=3621.1kbits/s speed=0.0141x elapsed=0:04:07.10    \nframe=  419 fps=1.7 q=37.1 size=    1536KiB time=00:00:03.47 bitrate=3621.1kbits/s speed=0.014x elapsed=0:04:07.61    \nframe=  419 fps=1.7 q=37.1 size=    1536KiB time=00:00:03.47 bitrate=3621.1kbits/s speed=0.014x elapsed=0:04:08.13    \nframe=  421 fps=1.7 q=38.9 size=    1536KiB time=00:00:03.49 bitrate=3603.8kbits/s speed=0.014x elapsed=0:04:08.64    \nframe=  421 fps=1.7 q=38.9 size=    1536KiB time=00:00:03.49 bitrate=3603.8kbits/s speed=0.014x elapsed=0:04:09.16    \nframe=  421 fps=1.7 q=38.9 size=    1536KiB time=00:00:03.49 bitrate=3603.8kbits/s speed=0.014x elapsed=0:04:09.67    \nframe=  421 fps=1.7 q=38.9 size=    1536KiB time=00:00:03.49 bitrate=3603.8kbits/s speed=0.014x elapsed=0:04:10.19    \nframe=  421 fps=1.7 q=38.9 size=    1536KiB time=00:00:03.49 bitrate=3603.8kbits/s speed=0.0139x elapsed=0:04:10.71    \nframe=  421 fps=1.7 q=38.9 size=    1536KiB time=00:00:03.49 bitrate=3603.8kbits/s speed=0.0139x elapsed=0:04:11.23    \nframe=  422 fps=1.7 q=31.7 size=    1536KiB time=00:00:03.50 bitrate=3595.2kbits/s speed=0.0139x elapsed=0:04:11.73    \nframe=  422 fps=1.7 q=31.7 size=    1536KiB time=00:00:03.50 bitrate=3595.2kbits/s speed=0.0139x elapsed=0:04:12.26    \nframe=  422 fps=1.7 q=31.7 size=    1536KiB time=00:00:03.50 bitrate=3595.2kbits/s speed=0.0138x elapsed=0:04:12.78    \nframe=  423 fps=1.7 q=37.0 size=    1536KiB time=00:00:03.50 bitrate=3586.7kbits/s speed=0.0139x elapsed=0:04:13.28    \nframe=  423 fps=1.7 q=37.0 size=    1536KiB time=00:00:03.50 bitrate=3586.7kbits/s speed=0.0138x elapsed=0:04:13.81    \nframe=  423 fps=1.7 q=37.0 size=    1536KiB time=00:00:03.50 bitrate=3586.7kbits/s speed=0.0138x elapsed=0:04:14.31    \nframe=  425 fps=1.7 q=39.0 size=    1536KiB time=00:00:03.52 bitrate=3569.7kbits/s speed=0.0138x elapsed=0:04:14.84    \nframe=  425 fps=1.7 q=39.0 size=    1536KiB time=00:00:03.52 bitrate=3569.7kbits/s speed=0.0138x elapsed=0:04:15.34    \nframe=  425 fps=1.7 q=39.0 size=    1536KiB time=00:00:03.52 bitrate=3569.7kbits/s speed=0.0138x elapsed=0:04:15.86    \nframe=  425 fps=1.7 q=39.0 size=    1536KiB time=00:00:03.52 bitrate=3569.7kbits/s speed=0.0137x elapsed=0:04:16.38    \nframe=  425 fps=1.7 q=39.0 size=    1536KiB time=00:00:03.52 bitrate=3569.7kbits/s speed=0.0137x elapsed=0:04:16.90    \nframe=  425 fps=1.7 q=39.0 size=    1536KiB time=00:00:03.52 bitrate=3569.7kbits/s speed=0.0137x elapsed=0:04:17.42    \nframe=  425 fps=1.6 q=39.0 size=    1536KiB time=00:00:03.52 bitrate=3569.7kbits/s speed=0.0137x elapsed=0:04:17.93    \nframe=  426 fps=1.6 q=32.1 size=    1536KiB time=00:00:03.53 bitrate=3561.3kbits/s speed=0.0137x elapsed=0:04:18.45    \nframe=  427 fps=1.6 q=37.2 size=    1536KiB time=00:00:03.54 bitrate=3552.9kbits/s speed=0.0137x elapsed=0:04:18.96    \nframe=  427 fps=1.6 q=37.2 size=    1536KiB time=00:00:03.54 bitrate=3552.9kbits/s speed=0.0136x elapsed=0:04:19.48    \nframe=  427 fps=1.6 q=37.2 size=    1536KiB time=00:00:03.54 bitrate=3552.9kbits/s speed=0.0136x elapsed=0:04:19.99    \nframe=  427 fps=1.6 q=37.2 size=    1536KiB time=00:00:03.54 bitrate=3552.9kbits/s speed=0.0136x elapsed=0:04:20.51    \nframe=  428 fps=1.6 q=38.8 size=    1536KiB time=00:00:03.55 bitrate=3544.6kbits/s speed=0.0136x elapsed=0:04:21.02    \nframe=  429 fps=1.6 q=38.9 size=    1536KiB time=00:00:03.55 bitrate=3536.3kbits/s speed=0.0136x elapsed=0:04:21.54    \nframe=  429 fps=1.6 q=38.9 size=    1536KiB time=00:00:03.55 bitrate=3536.3kbits/s speed=0.0136x elapsed=0:04:22.05    \nframe=  429 fps=1.6 q=38.9 size=    1536KiB time=00:00:03.55 bitrate=3536.3kbits/s speed=0.0136x elapsed=0:04:22.58    \nframe=  430 fps=1.6 q=31.3 size=    1536KiB time=00:00:03.56 bitrate=3528.0kbits/s speed=0.0136x elapsed=0:04:23.10    \nframe=  430 fps=1.6 q=31.3 size=    1536KiB time=00:00:03.56 bitrate=3528.0kbits/s speed=0.0135x elapsed=0:04:23.61    \nframe=  431 fps=1.6 q=37.1 size=    1536KiB time=00:00:03.57 bitrate=3519.8kbits/s speed=0.0135x elapsed=0:04:24.13    \nframe=  431 fps=1.6 q=37.1 size=    1536KiB time=00:00:03.57 bitrate=3519.8kbits/s speed=0.0135x elapsed=0:04:24.65    \nframe=  432 fps=1.6 q=38.9 size=    1536KiB time=00:00:03.58 bitrate=3511.6kbits/s speed=0.0135x elapsed=0:04:25.16    \nframe=  432 fps=1.6 q=38.9 size=    1536KiB time=00:00:03.58 bitrate=3511.6kbits/s speed=0.0135x elapsed=0:04:25.68    \nframe=  432 fps=1.6 q=38.9 size=    1536KiB time=00:00:03.58 bitrate=3511.6kbits/s speed=0.0135x elapsed=0:04:26.20    \nframe=  433 fps=1.6 q=38.9 size=    1536KiB time=00:00:03.59 bitrate=3503.5kbits/s speed=0.0135x elapsed=0:04:26.70    \nframe=  433 fps=1.6 q=38.9 size=    1536KiB time=00:00:03.59 bitrate=3503.5kbits/s speed=0.0134x elapsed=0:04:27.23    \nframe=  434 fps=1.6 q=32.3 size=    1536KiB time=00:00:03.60 bitrate=3495.4kbits/s speed=0.0134x elapsed=0:04:27.73    \nframe=  434 fps=1.6 q=32.3 size=    1536KiB time=00:00:03.60 bitrate=3495.4kbits/s speed=0.0134x elapsed=0:04:28.25    \nframe=  434 fps=1.6 q=32.3 size=    1536KiB time=00:00:03.60 bitrate=3495.4kbits/s speed=0.0134x elapsed=0:04:28.77    \nframe=  435 fps=1.6 q=37.3 size=    1536KiB time=00:00:03.60 bitrate=3487.3kbits/s speed=0.0134x elapsed=0:04:29.29    \nframe=  435 fps=1.6 q=37.3 size=    1536KiB time=00:00:03.60 bitrate=3487.3kbits/s speed=0.0134x elapsed=0:04:29.81    \nframe=  436 fps=1.6 q=38.9 size=    1536KiB time=00:00:03.61 bitrate=3479.2kbits/s speed=0.0134x elapsed=0:04:30.31    \nframe=  437 fps=1.6 q=38.9 size=    1536KiB time=00:00:03.62 bitrate=3471.2kbits/s speed=0.0134x elapsed=0:04:30.84    \nframe=  437 fps=1.6 q=38.9 size=    1536KiB time=00:00:03.62 bitrate=3471.2kbits/s speed=0.0134x elapsed=0:04:31.35    \nframe=  437 fps=1.6 q=38.9 size=    1536KiB time=00:00:03.62 bitrate=3471.2kbits/s speed=0.0133x elapsed=0:04:31.86    \nframe=  438 fps=1.6 q=31.8 size=    1536KiB time=00:00:03.63 bitrate=3463.3kbits/s speed=0.0133x elapsed=0:04:32.39    \nframe=  438 fps=1.6 q=31.8 size=    1536KiB time=00:00:03.63 bitrate=3463.3kbits/s speed=0.0133x elapsed=0:04:32.90    \nframe=  439 fps=1.6 q=37.3 size=    1536KiB time=00:00:03.64 bitrate=3455.4kbits/s speed=0.0133x elapsed=0:04:33.41    \nframe=  439 fps=1.6 q=37.3 size=    1536KiB time=00:00:03.64 bitrate=3455.4kbits/s speed=0.0133x elapsed=0:04:33.92    \nframe=  440 fps=1.6 q=38.9 size=    1536KiB time=00:00:03.65 bitrate=3447.5kbits/s speed=0.0133x elapsed=0:04:34.44    \nframe=  441 fps=1.6 q=38.8 size=    1536KiB time=00:00:03.65 bitrate=3439.6kbits/s speed=0.0133x elapsed=0:04:34.96    \nframe=  442 fps=1.6 q=31.6 size=    1536KiB time=00:00:03.66 bitrate=3431.8kbits/s speed=0.0133x elapsed=0:04:35.47    \nframe=  442 fps=1.6 q=31.6 size=    1536KiB time=00:00:03.66 bitrate=3431.8kbits/s speed=0.0133x elapsed=0:04:35.99    \nframe=  444 fps=1.6 q=38.9 size=    1536KiB time=00:00:03.67 bitrate=3424.0kbits/s speed=0.0133x elapsed=0:04:36.50    \nframe=  444 fps=1.6 q=38.9 size=    1536KiB time=00:00:03.68 bitrate=3416.3kbits/s speed=0.0133x elapsed=0:04:37.02    \nframe=  444 fps=1.6 q=38.9 size=    1536KiB time=00:00:03.68 bitrate=3416.3kbits/s speed=0.0133x elapsed=0:04:37.55    \nframe=  445 fps=1.6 q=38.9 size=    1536KiB time=00:00:03.69 bitrate=3408.6kbits/s speed=0.0133x elapsed=0:04:38.07    \nframe=  445 fps=1.6 q=38.9 size=    1536KiB time=00:00:03.69 bitrate=3408.6kbits/s speed=0.0133x elapsed=0:04:38.59    \nframe=  446 fps=1.6 q=32.3 size=    1536KiB time=00:00:03.70 bitrate=3400.9kbits/s speed=0.0133x elapsed=0:04:39.11    \nframe=  447 fps=1.6 q=36.7 size=    1792KiB time=00:00:03.70 bitrate=3958.8kbits/s speed=0.0133x elapsed=0:04:39.63    \nframe=  449 fps=1.6 q=39.0 size=    1792KiB time=00:00:03.72 bitrate=3941.1kbits/s speed=0.0133x elapsed=0:04:40.15    \nframe=  450 fps=1.6 q=31.7 size=    1792KiB time=00:00:03.73 bitrate=3932.3kbits/s speed=0.0133x elapsed=0:04:40.66    \nframe=  450 fps=1.6 q=31.7 size=    1792KiB time=00:00:03.73 bitrate=3932.3kbits/s speed=0.0133x elapsed=0:04:41.18    \nframe=  451 fps=1.6 q=37.1 size=    1792KiB time=00:00:03.74 bitrate=3923.5kbits/s speed=0.0133x elapsed=0:04:41.73    \nframe=  452 fps=1.6 q=38.9 size=    1792KiB time=00:00:03.75 bitrate=3914.8kbits/s speed=0.0133x elapsed=0:04:42.24    \nframe=  453 fps=1.6 q=38.9 size=    1792KiB time=00:00:03.75 bitrate=3906.1kbits/s speed=0.0133x elapsed=0:04:42.76    \nframe=  453 fps=1.6 q=38.9 size=    1792KiB time=00:00:03.75 bitrate=3906.1kbits/s speed=0.0133x elapsed=0:04:43.27    \nframe=  455 fps=1.6 q=37.1 size=    1792KiB time=00:00:03.77 bitrate=3888.9kbits/s speed=0.0133x elapsed=0:04:43.79    \nframe=  457 fps=1.6 q=38.8 size=    1792KiB time=00:00:03.79 bitrate=3871.8kbits/s speed=0.0133x elapsed=0:04:44.31    \nframe=  457 fps=1.6 q=38.8 size=    1792KiB time=00:00:03.79 bitrate=3871.8kbits/s speed=0.0133x elapsed=0:04:44.82    \nframe=  458 fps=1.6 q=31.4 size=    1792KiB time=00:00:03.80 bitrate=3863.3kbits/s speed=0.0133x elapsed=0:04:45.34    \nframe=  459 fps=1.6 q=37.0 size=    1792KiB time=00:00:03.80 bitrate=3854.8kbits/s speed=0.0133x elapsed=0:04:45.84    \nframe=  460 fps=1.6 q=38.9 size=    1792KiB time=00:00:03.81 bitrate=3846.4kbits/s speed=0.0133x elapsed=0:04:46.37    \nframe=  461 fps=1.6 q=38.9 size=    1792KiB time=00:00:03.82 bitrate=3838.0kbits/s speed=0.0133x elapsed=0:04:46.89    \nframe=  462 fps=1.6 q=31.8 size=    1792KiB time=00:00:03.83 bitrate=3829.7kbits/s speed=0.0133x elapsed=0:04:47.41    \nframe=  464 fps=1.6 q=38.9 size=    1792KiB time=00:00:03.85 bitrate=3813.1kbits/s speed=0.0134x elapsed=0:04:47.93    \nframe=  465 fps=1.6 q=39.0 size=    1792KiB time=00:00:03.85 bitrate=3804.9kbits/s speed=0.0134x elapsed=0:04:48.44    \nframe=  466 fps=1.6 q=31.1 size=    1792KiB time=00:00:03.86 bitrate=3796.7kbits/s speed=0.0134x elapsed=0:04:48.95    \nframe=  467 fps=1.6 q=37.0 size=    1792KiB time=00:00:03.87 bitrate=3788.5kbits/s speed=0.0134x elapsed=0:04:49.47    \nframe=  469 fps=1.6 q=38.9 size=    1792KiB time=00:00:03.89 bitrate=3772.3kbits/s speed=0.0134x elapsed=0:04:50.00    \nframe=  471 fps=1.6 q=37.2 size=    1792KiB time=00:00:03.90 bitrate=3756.2kbits/s speed=0.0135x elapsed=0:04:50.52    \nframe=  473 fps=1.6 q=38.9 size=    1792KiB time=00:00:03.92 bitrate=3740.2kbits/s speed=0.0135x elapsed=0:04:51.04    \nframe=  474 fps=1.6 q=32.4 size=    1792KiB time=00:00:03.93 bitrate=3732.3kbits/s speed=0.0135x elapsed=0:04:51.56    \nframe=  477 fps=1.6 q=39.0 size=    1792KiB time=00:00:03.95 bitrate=3708.7kbits/s speed=0.0136x elapsed=0:04:52.07    \nframe=  478 fps=1.6 q=31.9 size=    1792KiB time=00:00:03.96 bitrate=3700.9kbits/s speed=0.0136x elapsed=0:04:52.59    \nframe=  479 fps=1.6 q=37.1 size=    1792KiB time=00:00:03.97 bitrate=3693.2kbits/s speed=0.0136x elapsed=0:04:53.11    \nframe=  481 fps=1.6 q=38.9 size=    1792KiB time=00:00:03.99 bitrate=3677.8kbits/s speed=0.0136x elapsed=0:04:53.63    \nframe=  483 fps=1.6 q=37.3 size=    1792KiB time=00:00:04.00 bitrate=3662.5kbits/s speed=0.0136x elapsed=0:04:54.14    \nframe=  484 fps=1.6 q=38.9 size=    1792KiB time=00:00:04.01 bitrate=3654.9kbits/s speed=0.0136x elapsed=0:04:54.66    \nframe=  486 fps=1.6 q=32.6 size=    1792KiB time=00:00:04.03 bitrate=3639.8kbits/s speed=0.0137x elapsed=0:04:55.18    \nframe=  488 fps=1.7 q=38.9 size=    1792KiB time=00:00:04.05 bitrate=3624.8kbits/s speed=0.0137x elapsed=0:04:55.71    \nframe=  489 fps=1.7 q=38.9 size=    1792KiB time=00:00:04.05 bitrate=3617.4kbits/s speed=0.0137x elapsed=0:04:56.23    \nframe=  491 fps=1.7 q=37.1 size=    1792KiB time=00:00:04.07 bitrate=3602.6kbits/s speed=0.0137x elapsed=0:04:56.74    \nframe=  493 fps=1.7 q=38.9 size=    1792KiB time=00:00:04.09 bitrate=3587.9kbits/s speed=0.0138x elapsed=0:04:57.26    \nframe=  494 fps=1.7 q=32.2 size=    1792KiB time=00:00:04.10 bitrate=3580.6kbits/s speed=0.0138x elapsed=0:04:57.76    \nframe=  495 fps=1.7 q=36.7 size=    1792KiB time=00:00:04.10 bitrate=3573.3kbits/s speed=0.0138x elapsed=0:04:58.29    \nframe=  497 fps=1.7 q=39.0 size=    1792KiB time=00:00:04.12 bitrate=3558.9kbits/s speed=0.0138x elapsed=0:04:58.81    \nframe=  498 fps=1.7 q=29.7 size=    1792KiB time=00:00:04.13 bitrate=3551.7kbits/s speed=0.0138x elapsed=0:04:59.31    \nframe=  501 fps=1.7 q=38.9 size=    1792KiB time=00:00:04.15 bitrate=3530.4kbits/s speed=0.0139x elapsed=0:04:59.84    \nframe=  502 fps=1.7 q=31.7 size=    1792KiB time=00:00:04.16 bitrate=3523.3kbits/s speed=0.0139x elapsed=0:05:00.36    \nframe=  503 fps=1.7 q=37.1 size=    1792KiB time=00:00:04.17 bitrate=3516.3kbits/s speed=0.0139x elapsed=0:05:00.88    \nframe=  503 fps=1.7 q=37.1 size=    1792KiB time=00:00:04.17 bitrate=3516.3kbits/s speed=0.0139x elapsed=0:05:01.40    \nframe=  505 fps=1.7 q=39.0 size=    2048KiB time=00:00:04.19 bitrate=4002.6kbits/s speed=0.0139x elapsed=0:05:01.91    \nframe=  505 fps=1.7 q=39.0 size=    2048KiB time=00:00:04.19 bitrate=4002.6kbits/s speed=0.0139x elapsed=0:05:02.43    \nframe=  507 fps=1.7 q=36.6 size=    2048KiB time=00:00:04.20 bitrate=3986.7kbits/s speed=0.0139x elapsed=0:05:02.94    \nframe=  508 fps=1.7 q=39.0 size=    2048KiB time=00:00:04.21 bitrate=3978.9kbits/s speed=0.0139x elapsed=0:05:03.46    \nframe=  509 fps=1.7 q=39.0 size=    2048KiB time=00:00:04.22 bitrate=3971.0kbits/s speed=0.0139x elapsed=0:05:03.98    \nframe=  509 fps=1.7 q=39.0 size=    2048KiB time=00:00:04.22 bitrate=3971.0kbits/s speed=0.0139x elapsed=0:05:04.49    \nframe=  510 fps=1.7 q=31.9 size=    2048KiB time=00:00:04.23 bitrate=3963.2kbits/s speed=0.0139x elapsed=0:05:05.02    \nframe=  511 fps=1.7 q=37.0 size=    2048KiB time=00:00:04.24 bitrate=3955.4kbits/s speed=0.0139x elapsed=0:05:05.54    \nframe=  511 fps=1.7 q=37.0 size=    2048KiB time=00:00:04.24 bitrate=3955.4kbits/s speed=0.0139x elapsed=0:05:06.05    \nframe=  512 fps=1.7 q=38.9 size=    2048KiB time=00:00:04.25 bitrate=3947.7kbits/s speed=0.0139x elapsed=0:05:06.57    \nframe=  513 fps=1.7 q=38.9 size=    2048KiB time=00:00:04.25 bitrate=3939.9kbits/s speed=0.0139x elapsed=0:05:07.10    \nframe=  513 fps=1.7 q=38.9 size=    2048KiB time=00:00:04.25 bitrate=3939.9kbits/s speed=0.0138x elapsed=0:05:07.62    \nframe=  514 fps=1.7 q=32.1 size=    2048KiB time=00:00:04.26 bitrate=3932.2kbits/s speed=0.0138x elapsed=0:05:08.13    \nframe=  515 fps=1.7 q=37.3 size=    2048KiB time=00:00:04.27 bitrate=3924.6kbits/s speed=0.0139x elapsed=0:05:08.65    \nframe=  515 fps=1.7 q=37.3 size=    2048KiB time=00:00:04.27 bitrate=3924.6kbits/s speed=0.0138x elapsed=0:05:09.18    \nframe=  516 fps=1.7 q=38.9 size=    2048KiB time=00:00:04.28 bitrate=3916.9kbits/s speed=0.0138x elapsed=0:05:09.69    \nframe=  517 fps=1.7 q=38.9 size=    2048KiB time=00:00:04.29 bitrate=3909.3kbits/s speed=0.0138x elapsed=0:05:10.21    \nframe=  518 fps=1.7 q=32.0 size=    2048KiB time=00:00:04.30 bitrate=3901.8kbits/s speed=0.0138x elapsed=0:05:10.75    \nframe=  519 fps=1.7 q=37.1 size=    2048KiB time=00:00:04.30 bitrate=3894.2kbits/s speed=0.0138x elapsed=0:05:11.25    \nframe=  520 fps=1.7 q=38.9 size=    2048KiB time=00:00:04.31 bitrate=3886.7kbits/s speed=0.0138x elapsed=0:05:11.78    \nframe=  521 fps=1.7 q=38.9 size=    2048KiB time=00:00:04.32 bitrate=3879.2kbits/s speed=0.0138x elapsed=0:05:12.28    \nframe=  521 fps=1.7 q=38.9 size=    2048KiB time=00:00:04.32 bitrate=3879.2kbits/s speed=0.0138x elapsed=0:05:12.80    \nframe=  521 fps=1.7 q=38.9 size=    2048KiB time=00:00:04.32 bitrate=3879.2kbits/s speed=0.0138x elapsed=0:05:13.32    \nframe=  522 fps=1.7 q=32.3 size=    2048KiB time=00:00:04.33 bitrate=3871.7kbits/s speed=0.0138x elapsed=0:05:13.85    \nframe=  523 fps=1.7 q=37.1 size=    2048KiB time=00:00:04.34 bitrate=3864.3kbits/s speed=0.0138x elapsed=0:05:14.37    \nframe=  524 fps=1.7 q=38.9 size=    2048KiB time=00:00:04.35 bitrate=3856.9kbits/s speed=0.0138x elapsed=0:05:14.89    \nframe=  525 fps=1.7 q=39.0 size=    2048KiB time=00:00:04.35 bitrate=3849.5kbits/s speed=0.0138x elapsed=0:05:15.42    \nframe=  525 fps=1.7 q=39.0 size=    2048KiB time=00:00:04.35 bitrate=3849.5kbits/s speed=0.0138x elapsed=0:05:15.94    \nframe=  526 fps=1.7 q=31.7 size=    2048KiB time=00:00:04.36 bitrate=3842.2kbits/s speed=0.0138x elapsed=0:05:16.47    \nframe=  526 fps=1.7 q=31.7 size=    2048KiB time=00:00:04.36 bitrate=3842.2kbits/s speed=0.0138x elapsed=0:05:17.00    \nframe=  527 fps=1.7 q=37.2 size=    2048KiB time=00:00:04.37 bitrate=3834.9kbits/s speed=0.0138x elapsed=0:05:17.50    \nframe=  528 fps=1.7 q=39.0 size=    2048KiB time=00:00:04.38 bitrate=3827.6kbits/s speed=0.0138x elapsed=0:05:18.02    \nframe=  529 fps=1.7 q=39.0 size=    2048KiB time=00:00:04.39 bitrate=3820.3kbits/s speed=0.0138x elapsed=0:05:18.55    \nframe=  530 fps=1.7 q=32.1 size=    2048KiB time=00:00:04.40 bitrate=3813.1kbits/s speed=0.0138x elapsed=0:05:19.08    \nframe=  530 fps=1.7 q=32.1 size=    2048KiB time=00:00:04.40 bitrate=3813.1kbits/s speed=0.0138x elapsed=0:05:19.62    \nframe=  531 fps=1.7 q=37.1 size=    2048KiB time=00:00:04.40 bitrate=3805.9kbits/s speed=0.0138x elapsed=0:05:20.14    \nframe=  533 fps=1.7 q=38.9 size=    2048KiB time=00:00:04.42 bitrate=3791.5kbits/s speed=0.0138x elapsed=0:05:20.67    \nframe=  533 fps=1.7 q=38.9 size=    2048KiB time=00:00:04.42 bitrate=3791.5kbits/s speed=0.0138x elapsed=0:05:21.20    \nframe=  533 fps=1.7 q=38.9 size=    2048KiB time=00:00:04.42 bitrate=3791.5kbits/s speed=0.0138x elapsed=0:05:21.72    \nframe=  533 fps=1.7 q=38.9 size=    2048KiB time=00:00:04.42 bitrate=3791.5kbits/s speed=0.0137x elapsed=0:05:22.25    \nframe=  534 fps=1.7 q=32.4 size=    2048KiB time=00:00:04.43 bitrate=3784.4kbits/s speed=0.0137x elapsed=0:05:22.75    \nframe=  534 fps=1.7 q=32.4 size=    2048KiB time=00:00:04.43 bitrate=3784.4kbits/s speed=0.0137x elapsed=0:05:23.27    \nframe=  535 fps=1.7 q=37.2 size=    2048KiB time=00:00:04.44 bitrate=3777.3kbits/s speed=0.0137x elapsed=0:05:23.78    \nframe=  536 fps=1.7 q=39.0 size=    2048KiB time=00:00:04.45 bitrate=3770.2kbits/s speed=0.0137x elapsed=0:05:24.31    \nframe=  537 fps=1.7 q=38.9 size=    2048KiB time=00:00:04.45 bitrate=3763.2kbits/s speed=0.0137x elapsed=0:05:24.84    \nframe=  537 fps=1.7 q=38.9 size=    2048KiB time=00:00:04.45 bitrate=3763.2kbits/s speed=0.0137x elapsed=0:05:25.36    \nframe=  538 fps=1.7 q=31.7 size=    2048KiB time=00:00:04.46 bitrate=3756.2kbits/s speed=0.0137x elapsed=0:05:25.90    \nframe=  539 fps=1.7 q=36.9 size=    2048KiB time=00:00:04.47 bitrate=3749.2kbits/s speed=0.0137x elapsed=0:05:26.43    \nframe=  541 fps=1.7 q=39.0 size=    2048KiB time=00:00:04.49 bitrate=3735.3kbits/s speed=0.0137x elapsed=0:05:26.94    \nframe=  541 fps=1.7 q=39.0 size=    2048KiB time=00:00:04.49 bitrate=3735.3kbits/s speed=0.0137x elapsed=0:05:27.46    \nframe=  541 fps=1.6 q=39.0 size=    2048KiB time=00:00:04.49 bitrate=3735.3kbits/s speed=0.0137x elapsed=0:05:27.98    \nframe=  542 fps=1.6 q=31.9 size=    2048KiB time=00:00:04.50 bitrate=3728.3kbits/s speed=0.0137x elapsed=0:05:28.51    \nframe=  543 fps=1.7 q=37.1 size=    2048KiB time=00:00:04.50 bitrate=3721.5kbits/s speed=0.0137x elapsed=0:05:29.02    \nframe=  544 fps=1.7 q=38.9 size=    2048KiB time=00:00:04.51 bitrate=3714.6kbits/s speed=0.0137x elapsed=0:05:29.55    \nframe=  545 fps=1.7 q=38.9 size=    2048KiB time=00:00:04.52 bitrate=3707.7kbits/s speed=0.0137x elapsed=0:05:30.07    \nframe=  545 fps=1.6 q=38.9 size=    2048KiB time=00:00:04.52 bitrate=3707.7kbits/s speed=0.0137x elapsed=0:05:30.58    \nframe=  546 fps=1.6 q=32.3 size=    2048KiB time=00:00:04.53 bitrate=3700.9kbits/s speed=0.0137x elapsed=0:05:31.10    \nframe=  546 fps=1.6 q=32.3 size=    2048KiB time=00:00:04.53 bitrate=3700.9kbits/s speed=0.0137x elapsed=0:05:31.62    \nframe=  547 fps=1.6 q=37.0 size=    2048KiB time=00:00:04.54 bitrate=3694.1kbits/s speed=0.0137x elapsed=0:05:32.13    \nframe=  548 fps=1.6 q=39.0 size=    2048KiB time=00:00:04.55 bitrate=3687.4kbits/s speed=0.0137x elapsed=0:05:32.67    \nframe=  548 fps=1.6 q=39.0 size=    2048KiB time=00:00:04.55 bitrate=3687.4kbits/s speed=0.0137x elapsed=0:05:33.17    \nframe=  549 fps=1.6 q=39.0 size=    2048KiB time=00:00:04.55 bitrate=3680.6kbits/s speed=0.0137x elapsed=0:05:33.69    \nframe=  550 fps=1.6 q=31.9 size=    2048KiB time=00:00:04.56 bitrate=3673.9kbits/s speed=0.0137x elapsed=0:05:34.22    \nframe=  551 fps=1.6 q=37.2 size=    2048KiB time=00:00:04.57 bitrate=3667.2kbits/s speed=0.0137x elapsed=0:05:34.73    \nframe=  551 fps=1.6 q=37.2 size=    2048KiB time=00:00:04.57 bitrate=3667.2kbits/s speed=0.0136x elapsed=0:05:35.28    \nframe=  553 fps=1.6 q=38.9 size=    2048KiB time=00:00:04.59 bitrate=3653.9kbits/s speed=0.0137x elapsed=0:05:35.78    \nframe=  553 fps=1.6 q=38.9 size=    2048KiB time=00:00:04.59 bitrate=3653.9kbits/s speed=0.0137x elapsed=0:05:36.30    \nframe=  553 fps=1.6 q=38.9 size=    2048KiB time=00:00:04.59 bitrate=3653.9kbits/s speed=0.0136x elapsed=0:05:36.81    \nframe=  554 fps=1.6 q=32.7 size=    2048KiB time=00:00:04.60 bitrate=3647.3kbits/s speed=0.0136x elapsed=0:05:37.33    \nframe=  554 fps=1.6 q=32.7 size=    2048KiB time=00:00:04.60 bitrate=3647.3kbits/s speed=0.0136x elapsed=0:05:37.87    \nframe=  555 fps=1.6 q=36.8 size=    2048KiB time=00:00:04.60 bitrate=3640.7kbits/s speed=0.0136x elapsed=0:05:38.39    \nframe=  555 fps=1.6 q=36.8 size=    2048KiB time=00:00:04.60 bitrate=3640.7kbits/s speed=0.0136x elapsed=0:05:38.91    \nframe=  557 fps=1.6 q=38.9 size=    2048KiB time=00:00:04.62 bitrate=3627.6kbits/s speed=0.0136x elapsed=0:05:39.44    \nframe=  557 fps=1.6 q=38.9 size=    2048KiB time=00:00:04.62 bitrate=3627.6kbits/s speed=0.0136x elapsed=0:05:39.96    \nframe=  558 fps=1.6 q=32.5 size=    2048KiB time=00:00:04.63 bitrate=3621.1kbits/s speed=0.0136x elapsed=0:05:40.48    \nframe=  558 fps=1.6 q=32.5 size=    2048KiB time=00:00:04.63 bitrate=3621.1kbits/s speed=0.0136x elapsed=0:05:41.00    \nframe=  559 fps=1.6 q=36.8 size=    2048KiB time=00:00:04.64 bitrate=3614.6kbits/s speed=0.0136x elapsed=0:05:41.52    \nframe=  560 fps=1.6 q=38.8 size=    2048KiB time=00:00:04.65 bitrate=3608.1kbits/s speed=0.0136x elapsed=0:05:42.04    \nframe=  561 fps=1.6 q=38.9 size=    2048KiB time=00:00:04.65 bitrate=3601.6kbits/s speed=0.0136x elapsed=0:05:42.57    \nframe=  561 fps=1.6 q=38.9 size=    2048KiB time=00:00:04.65 bitrate=3601.6kbits/s speed=0.0136x elapsed=0:05:43.09    \nframe=  562 fps=1.6 q=32.3 size=    2048KiB time=00:00:04.66 bitrate=3595.2kbits/s speed=0.0136x elapsed=0:05:43.59    \nframe=  563 fps=1.6 q=37.0 size=    2048KiB time=00:00:04.67 bitrate=3588.8kbits/s speed=0.0136x elapsed=0:05:44.12    \nframe=  565 fps=1.6 q=38.9 size=    2048KiB time=00:00:04.69 bitrate=3576.0kbits/s speed=0.0136x elapsed=0:05:44.64    \nframe=  565 fps=1.6 q=38.9 size=    2048KiB time=00:00:04.69 bitrate=3576.0kbits/s speed=0.0136x elapsed=0:05:45.16    \nframe=  565 fps=1.6 q=38.9 size=    2048KiB time=00:00:04.69 bitrate=3576.0kbits/s speed=0.0136x elapsed=0:05:45.70    \nframe=  565 fps=1.6 q=38.9 size=    2048KiB time=00:00:04.69 bitrate=3576.0kbits/s speed=0.0136x elapsed=0:05:46.21    \nframe=  567 fps=1.6 q=36.8 size=    2048KiB time=00:00:04.70 bitrate=3563.4kbits/s speed=0.0136x elapsed=0:05:46.75    \nframe=  567 fps=1.6 q=36.8 size=    2048KiB time=00:00:04.70 bitrate=3563.4kbits/s speed=0.0136x elapsed=0:05:47.27    \nframe=  569 fps=1.6 q=38.9 size=    2304KiB time=00:00:04.72 bitrate=3994.6kbits/s speed=0.0136x elapsed=0:05:47.78    \nframe=  569 fps=1.6 q=38.9 size=    2304KiB time=00:00:04.72 bitrate=3994.6kbits/s speed=0.0136x elapsed=0:05:48.31    \nframe=  571 fps=1.6 q=37.0 size=    2304KiB time=00:00:04.74 bitrate=3980.6kbits/s speed=0.0136x elapsed=0:05:48.81    \nframe=  572 fps=1.6 q=39.0 size=    2304KiB time=00:00:04.75 bitrate=3973.6kbits/s speed=0.0136x elapsed=0:05:49.33    \nframe=  573 fps=1.6 q=39.0 size=    2304KiB time=00:00:04.75 bitrate=3966.7kbits/s speed=0.0136x elapsed=0:05:49.86    \nframe=  573 fps=1.6 q=39.0 size=    2304KiB time=00:00:04.75 bitrate=3966.7kbits/s speed=0.0136x elapsed=0:05:50.38    \nframe=  574 fps=1.6 q=32.2 size=    2304KiB time=00:00:04.76 bitrate=3959.7kbits/s speed=0.0136x elapsed=0:05:50.90    \nframe=  575 fps=1.6 q=36.7 size=    2304KiB time=00:00:04.77 bitrate=3952.8kbits/s speed=0.0136x elapsed=0:05:51.44    \nframe=  576 fps=1.6 q=38.9 size=    2304KiB time=00:00:04.78 bitrate=3945.9kbits/s speed=0.0136x elapsed=0:05:51.96    \nframe=  577 fps=1.6 q=38.9 size=    2304KiB time=00:00:04.79 bitrate=3939.1kbits/s speed=0.0136x elapsed=0:05:52.47    \nframe=  578 fps=1.6 q=32.2 size=    2304KiB time=00:00:04.80 bitrate=3932.2kbits/s speed=0.0136x elapsed=0:05:52.99    \nframe=  578 fps=1.6 q=32.2 size=    2304KiB time=00:00:04.80 bitrate=3932.2kbits/s speed=0.0136x elapsed=0:05:53.52    \nframe=  579 fps=1.6 q=36.8 size=    2304KiB time=00:00:04.80 bitrate=3925.4kbits/s speed=0.0136x elapsed=0:05:54.04    \nframe=  579 fps=1.6 q=36.8 size=    2304KiB time=00:00:04.80 bitrate=3925.4kbits/s speed=0.0136x elapsed=0:05:54.56    \nframe=  579 fps=1.6 q=36.8 size=    2304KiB time=00:00:04.80 bitrate=3925.4kbits/s speed=0.0135x elapsed=0:05:55.07    \nframe=  579 fps=1.6 q=36.8 size=    2304KiB time=00:00:04.80 bitrate=3925.4kbits/s speed=0.0135x elapsed=0:05:55.62    \nframe=  580 fps=1.6 q=38.9 size=    2304KiB time=00:00:04.81 bitrate=3918.6kbits/s speed=0.0135x elapsed=0:05:56.16    \nframe=  580 fps=1.6 q=38.9 size=    2304KiB time=00:00:04.81 bitrate=3918.6kbits/s speed=0.0135x elapsed=0:05:56.72    \nframe=  581 fps=1.6 q=38.9 size=    2304KiB time=00:00:04.82 bitrate=3911.9kbits/s speed=0.0135x elapsed=0:05:57.26    \nframe=  581 fps=1.6 q=38.9 size=    2304KiB time=00:00:04.82 bitrate=3911.9kbits/s speed=0.0135x elapsed=0:05:57.79    \nframe=  581 fps=1.6 q=38.9 size=    2304KiB time=00:00:04.82 bitrate=3911.9kbits/s speed=0.0135x elapsed=0:05:58.31    \nframe=  582 fps=1.6 q=32.5 size=    2304KiB time=00:00:04.82 bitrate=3911.9kbits/s speed=0.0134x elapsed=0:05:58.83    \nframe=  582 fps=1.6 q=32.5 size=    2304KiB time=00:00:04.83 bitrate=3905.1kbits/s speed=0.0134x elapsed=0:05:59.38    \nframe=  583 fps=1.6 q=37.1 size=    2304KiB time=00:00:04.84 bitrate=3898.4kbits/s speed=0.0135x elapsed=0:05:59.92    \nframe=  584 fps=1.6 q=39.0 size=    2304KiB time=00:00:04.85 bitrate=3891.7kbits/s speed=0.0135x elapsed=0:06:00.46    \nframe=  584 fps=1.6 q=39.0 size=    2304KiB time=00:00:04.85 bitrate=3891.7kbits/s speed=0.0134x elapsed=0:06:01.00    \nframe=  584 fps=1.6 q=39.0 size=    2304KiB time=00:00:04.85 bitrate=3891.7kbits/s speed=0.0134x elapsed=0:06:01.53    \nframe=  584 fps=1.6 q=39.0 size=    2304KiB time=00:00:04.85 bitrate=3891.7kbits/s speed=0.0134x elapsed=0:06:02.06    \nframe=  584 fps=1.6 q=39.0 size=    2304KiB time=00:00:04.85 bitrate=3891.7kbits/s speed=0.0134x elapsed=0:06:02.60    \nframe=  584 fps=1.6 q=39.0 size=    2304KiB time=00:00:04.85 bitrate=3891.7kbits/s speed=0.0134x elapsed=0:06:03.14    \nframe=  585 fps=1.6 q=32.4 size=    2304KiB time=00:00:04.85 bitrate=3885.0kbits/s speed=0.0134x elapsed=0:06:03.66    \nframe=  585 fps=1.6 q=32.4 size=    2304KiB time=00:00:04.85 bitrate=3885.0kbits/s speed=0.0133x elapsed=0:06:04.19    \nframe=  586 fps=1.6 q=36.9 size=    2304KiB time=00:00:04.86 bitrate=3878.4kbits/s speed=0.0133x elapsed=0:06:04.71    \nframe=  586 fps=1.6 q=36.9 size=    2304KiB time=00:00:04.86 bitrate=3878.4kbits/s speed=0.0133x elapsed=0:06:05.22    \nframe=  587 fps=1.6 q=39.0 size=    2304KiB time=00:00:04.87 bitrate=3871.7kbits/s speed=0.0133x elapsed=0:06:05.73    \nframe=  588 fps=1.6 q=38.9 size=    2304KiB time=00:00:04.88 bitrate=3865.1kbits/s speed=0.0133x elapsed=0:06:06.26    \nframe=  588 fps=1.6 q=38.9 size=    2304KiB time=00:00:04.88 bitrate=3865.1kbits/s speed=0.0133x elapsed=0:06:06.79    \nframe=  589 fps=1.6 q=33.1 size=    2304KiB time=00:00:04.89 bitrate=3858.5kbits/s speed=0.0133x elapsed=0:06:07.31    \nframe=  590 fps=1.6 q=36.8 size=    2304KiB time=00:00:04.90 bitrate=3852.0kbits/s speed=0.0133x elapsed=0:06:07.84    \nframe=  591 fps=1.6 q=38.9 size=    2304KiB time=00:00:04.90 bitrate=3845.4kbits/s speed=0.0133x elapsed=0:06:08.36    \nframe=  592 fps=1.6 q=38.9 size=    2304KiB time=00:00:04.91 bitrate=3838.9kbits/s speed=0.0133x elapsed=0:06:08.89    \nframe=  592 fps=1.6 q=38.9 size=    2304KiB time=00:00:04.91 bitrate=3838.9kbits/s speed=0.0133x elapsed=0:06:09.43    \nframe=  593 fps=1.6 q=33.5 size=    2304KiB time=00:00:04.92 bitrate=3832.4kbits/s speed=0.0133x elapsed=0:06:09.96    \nframe=  593 fps=1.6 q=33.5 size=    2304KiB time=00:00:04.92 bitrate=3832.4kbits/s speed=0.0133x elapsed=0:06:10.47    \nframe=  594 fps=1.6 q=36.9 size=    2304KiB time=00:00:04.93 bitrate=3826.0kbits/s speed=0.0133x elapsed=0:06:10.98    \nframe=  595 fps=1.6 q=39.0 size=    2304KiB time=00:00:04.94 bitrate=3819.5kbits/s speed=0.0133x elapsed=0:06:11.51    \nframe=  596 fps=1.6 q=39.0 size=    2304KiB time=00:00:04.95 bitrate=3813.1kbits/s speed=0.0133x elapsed=0:06:12.04    \nframe=  597 fps=1.6 q=35.7 size=    2304KiB time=00:00:04.95 bitrate=3806.7kbits/s speed=0.0133x elapsed=0:06:12.56    \nframe=  597 fps=1.6 q=35.7 size=    2304KiB time=00:00:04.95 bitrate=3806.7kbits/s speed=0.0133x elapsed=0:06:13.08    \nframe=  597 fps=1.6 q=35.7 size=    2304KiB time=00:00:04.95 bitrate=3806.7kbits/s speed=0.0133x elapsed=0:06:13.59    \n[mp4 @ 0000029cecbf9b80] Starting second pass: moving the moov atom to the beginning of the file\n[out#0/mp4 @ 0000029cecbf9a80] video:2423KiB audio:0KiB subtitle:0KiB other streams:0KiB global headers:2KiB muxing overhead: 0.448370%\nframe=  600 fps=1.6 q=38.7 Lsize=    2433KiB time=00:00:04.98 bitrate=4000.4kbits/s speed=0.0133x elapsed=0:06:13.99    \nx265 [info]: frame I:      3, Avg QP:33.02  kb/s: 31286.40\nx265 [info]: frame P:    146, Avg QP:32.07  kb/s: 13340.63\nx265 [info]: frame B:    451, Avg QP:38.22  kb/s: 748.64  \nx265 [info]: Weighted P-Frames: Y:0.0% UV:0.0%\n\nencoded 600 frames in 372.82s (1.61 fps), 3965.38 kb/s, Avg QP:36.70\n",
  "seconds": 374.408486366272,
  "probe_out": {}
}